<?xml version="1.0" encoding="utf-8" ?>
<!DOCTYPE svg PUBLIC "-//W3C//DTD SVG 1.1//EN" "http://www.w3.org/Graphics/SVG/1.1/DTD/svg11.dtd">
<svg height="538" version="1.1" width="772" xmlns="http://www.w3.org/2000/svg">
<line fill="#000000" stroke="#000000" stroke-width="1" x1="686" x2="686" y1="159" y2="164"/>
<line fill="#000000" stroke="#000000" stroke-width="1" x1="686" x2="686" y1="169" y2="174"/>
<line fill="#000000" stroke="#000000" stroke-width="1" x1="686" x2="686" y1="179" y2="184"/>
<line fill="#000000" stroke="#000000" stroke-width="1" x1="686" x2="686" y1="189" y2="194"/>
<line fill="#000000" stroke="#000000" stroke-width="1" x1="686" x2="686" y1="199" y2="204"/>
<line fill="#000000" stroke="#000000" stroke-width="1" x1="686" x2="686" y1="209" y2="214"/>
<line fill="#000000" stroke="#000000" stroke-width="1" x1="686" x2="686" y1="219" y2="224"/>
<line fill="#000000" stroke="#000000" stroke-width="1" x1="686" x2="686" y1="229" y2="234"/>
<line fill="#000000" stroke="#000000" stroke-width="1" x1="686" x2="686" y1="239" y2="244"/>
<line fill="#000000" stroke="#000000" stroke-width="1" x1="686" x2="686" y1="249" y2="254"/>
<line fill="#000000" stroke="#000000" stroke-width="1" x1="686" x2="686" y1="259" y2="264"/>
<line fill="#000000" stroke="#000000" stroke-width="1" x1="686" x2="686" y1="269" y2="274"/>
<line fill="#000000" stroke="#000000" stroke-width="1" x1="686" x2="686" y1="279" y2="284"/>
<line fill="#000000" stroke="#000000" stroke-width="1" x1="686" x2="686" y1="289" y2="294"/>
<line fill="#000000" stroke="#000000" stroke-width="1" x1="686" x2="686" y1="299" y2="304"/>
<line fill="#000000" stroke="#000000" stroke-width="1" x1="686" x2="686" y1="309" y2="314"/>
<line fill="#000000" stroke="#000000" stroke-width="1" x1="686" x2="686" y1="319" y2="324"/>
<line fill="#000000" stroke="#000000" stroke-width="1" x1="686" x2="686" y1="329" y2="334"/>
<line fill="#000000" stroke="#000000" stroke-width="1" x1="686" x2="686" y1="339" y2="344"/>
<line fill="#000000" stroke="#000000" stroke-width="1" x1="686" x2="686" y1="349" y2="354"/>
<line fill="#000000" stroke="#000000" stroke-width="1" x1="686" x2="686" y1="359" y2="364"/>
<line fill="#000000" stroke="#000000" stroke-width="1" x1="686" x2="686" y1="369" y2="374"/>
<line fill="#000000" stroke="#000000" stroke-width="1" x1="686" x2="686" y1="379" y2="384"/>
<line fill="#000000" stroke="#000000" stroke-width="1" x1="686" x2="686" y1="389" y2="394"/>
<line fill="#000000" stroke="#000000" stroke-width="1" x1="686" x2="686" y1="399" y2="404"/>
<line fill="#000000" stroke="#000000" stroke-width="1" x1="686" x2="686" y1="409" y2="414"/>
<line fill="#000000" stroke="#000000" stroke-width="1" x1="686" x2="686" y1="419" y2="424"/>
<line fill="#000000" stroke="#000000" stroke-width="1" x1="686" x2="686" y1="429" y2="434"/>
<line fill="#000000" stroke="#000000" stroke-width="1" x1="686" x2="686" y1="439" y2="444"/>
<line fill="#000000" stroke="#000000" stroke-width="1" x1="686" x2="686" y1="449" y2="454"/>
<line fill="#000000" stroke="#000000" stroke-width="1" x1="686" x2="686" y1="459" y2="464"/>
<line fill="#000000" stroke="#000000" stroke-width="1" x1="686" x2="686" y1="469" y2="474"/>
<line fill="#000000" stroke="#000000" stroke-width="1" x1="686" x2="686" y1="479" y2="484"/>
<line fill="#000000" stroke="#000000" stroke-width="1" x1="686" x2="686" y1="489" y2="494"/>
<line fill="#000000" stroke="#000000" stroke-width="1" x1="686" x2="686" y1="499" y2="504"/>
<line fill="#000000" stroke="#000000" stroke-width="1" x1="686" x2="686" y1="509" y2="514"/>
<line fill="#000000" stroke="#000000" stroke-width="1" x1="686" x2="686" y1="519" y2="523"/>
<rect fill="#ffffff" height="364" stroke="#ffffff" stroke-width="1" width="20" x="676" y="159"/>
<rect fill="none" height="364" stroke="#000000" stroke-width="1" width="20" x="676" y="159"/>
<rect fill="#ffffff" height="50" stroke="#ffffff" stroke-width="1" width="144" x="614" y="110"/>
<rect fill="none" height="50" stroke="#000000" stroke-width="1" width="144" x="614" y="110"/>
<text font-family="Dialog" font-size="12" x="641" y="124">
/JobGroupClient</text>
<line fill="#000000" stroke="#000000" stroke-width="1" x1="302" x2="302" y1="159" y2="164"/>
<line fill="#000000" stroke="#000000" stroke-width="1" x1="302" x2="302" y1="169" y2="174"/>
<line fill="#000000" stroke="#000000" stroke-width="1" x1="302" x2="302" y1="179" y2="184"/>
<line fill="#000000" stroke="#000000" stroke-width="1" x1="302" x2="302" y1="189" y2="194"/>
<line fill="#000000" stroke="#000000" stroke-width="1" x1="302" x2="302" y1="199" y2="204"/>
<line fill="#000000" stroke="#000000" stroke-width="1" x1="302" x2="302" y1="209" y2="214"/>
<line fill="#000000" stroke="#000000" stroke-width="1" x1="302" x2="302" y1="219" y2="224"/>
<line fill="#000000" stroke="#000000" stroke-width="1" x1="302" x2="302" y1="229" y2="234"/>
<line fill="#000000" stroke="#000000" stroke-width="1" x1="302" x2="302" y1="239" y2="244"/>
<line fill="#000000" stroke="#000000" stroke-width="1" x1="302" x2="302" y1="249" y2="254"/>
<line fill="#000000" stroke="#000000" stroke-width="1" x1="302" x2="302" y1="259" y2="264"/>
<line fill="#000000" stroke="#000000" stroke-width="1" x1="302" x2="302" y1="269" y2="274"/>
<line fill="#000000" stroke="#000000" stroke-width="1" x1="302" x2="302" y1="279" y2="284"/>
<line fill="#000000" stroke="#000000" stroke-width="1" x1="302" x2="302" y1="289" y2="294"/>
<line fill="#000000" stroke="#000000" stroke-width="1" x1="302" x2="302" y1="299" y2="304"/>
<line fill="#000000" stroke="#000000" stroke-width="1" x1="302" x2="302" y1="309" y2="314"/>
<line fill="#000000" stroke="#000000" stroke-width="1" x1="302" x2="302" y1="319" y2="324"/>
<line fill="#000000" stroke="#000000" stroke-width="1" x1="302" x2="302" y1="329" y2="334"/>
<line fill="#000000" stroke="#000000" stroke-width="1" x1="302" x2="302" y1="339" y2="344"/>
<line fill="#000000" stroke="#000000" stroke-width="1" x1="302" x2="302" y1="349" y2="354"/>
<line fill="#000000" stroke="#000000" stroke-width="1" x1="302" x2="302" y1="359" y2="364"/>
<line fill="#000000" stroke="#000000" stroke-width="1" x1="302" x2="302" y1="369" y2="374"/>
<line fill="#000000" stroke="#000000" stroke-width="1" x1="302" x2="302" y1="379" y2="384"/>
<line fill="#000000" stroke="#000000" stroke-width="1" x1="302" x2="302" y1="389" y2="394"/>
<line fill="#000000" stroke="#000000" stroke-width="1" x1="302" x2="302" y1="399" y2="404"/>
<line fill="#000000" stroke="#000000" stroke-width="1" x1="302" x2="302" y1="409" y2="414"/>
<line fill="#000000" stroke="#000000" stroke-width="1" x1="302" x2="302" y1="419" y2="424"/>
<line fill="#000000" stroke="#000000" stroke-width="1" x1="302" x2="302" y1="429" y2="434"/>
<line fill="#000000" stroke="#000000" stroke-width="1" x1="302" x2="302" y1="439" y2="444"/>
<line fill="#000000" stroke="#000000" stroke-width="1" x1="302" x2="302" y1="449" y2="454"/>
<line fill="#000000" stroke="#000000" stroke-width="1" x1="302" x2="302" y1="459" y2="464"/>
<line fill="#000000" stroke="#000000" stroke-width="1" x1="302" x2="302" y1="469" y2="474"/>
<line fill="#000000" stroke="#000000" stroke-width="1" x1="302" x2="302" y1="479" y2="484"/>
<line fill="#000000" stroke="#000000" stroke-width="1" x1="302" x2="302" y1="489" y2="494"/>
<line fill="#000000" stroke="#000000" stroke-width="1" x1="302" x2="302" y1="499" y2="504"/>
<line fill="#000000" stroke="#000000" stroke-width="1" x1="302" x2="302" y1="509" y2="514"/>
<line fill="#000000" stroke="#000000" stroke-width="1" x1="302" x2="302" y1="519" y2="522"/>
<rect fill="#ffffff" height="363" stroke="#ffffff" stroke-width="1" width="20" x="292" y="159"/>
<rect fill="none" height="363" stroke="#000000" stroke-width="1" width="20" x="292" y="159"/>
<rect fill="#ffffff" height="50" stroke="#ffffff" stroke-width="1" width="208" x="198" y="110"/>
<rect fill="none" height="50" stroke="#000000" stroke-width="1" width="208" x="198" y="110"/>
<text font-family="Dialog" font-size="12" x="258" y="124">
/AuthFactoryImp</text>
<line fill="#000000" stroke="#000000" stroke-width="1" x1="98" x2="98" y1="159" y2="164"/>
<line fill="#000000" stroke="#000000" stroke-width="1" x1="98" x2="98" y1="169" y2="174"/>
<line fill="#000000" stroke="#000000" stroke-width="1" x1="98" x2="98" y1="179" y2="184"/>
<line fill="#000000" stroke="#000000" stroke-width="1" x1="98" x2="98" y1="189" y2="194"/>
<line fill="#000000" stroke="#000000" stroke-width="1" x1="98" x2="98" y1="199" y2="204"/>
<line fill="#000000" stroke="#000000" stroke-width="1" x1="98" x2="98" y1="209" y2="214"/>
<line fill="#000000" stroke="#000000" stroke-width="1" x1="98" x2="98" y1="219" y2="224"/>
<line fill="#000000" stroke="#000000" stroke-width="1" x1="98" x2="98" y1="229" y2="234"/>
<line fill="#000000" stroke="#000000" stroke-width="1" x1="98" x2="98" y1="239" y2="244"/>
<line fill="#000000" stroke="#000000" stroke-width="1" x1="98" x2="98" y1="249" y2="254"/>
<line fill="#000000" stroke="#000000" stroke-width="1" x1="98" x2="98" y1="259" y2="264"/>
<line fill="#000000" stroke="#000000" stroke-width="1" x1="98" x2="98" y1="269" y2="274"/>
<line fill="#000000" stroke="#000000" stroke-width="1" x1="98" x2="98" y1="279" y2="284"/>
<line fill="#000000" stroke="#000000" stroke-width="1" x1="98" x2="98" y1="289" y2="294"/>
<line fill="#000000" stroke="#000000" stroke-width="1" x1="98" x2="98" y1="299" y2="304"/>
<line fill="#000000" stroke="#000000" stroke-width="1" x1="98" x2="98" y1="309" y2="314"/>
<line fill="#000000" stroke="#000000" stroke-width="1" x1="98" x2="98" y1="319" y2="324"/>
<line fill="#000000" stroke="#000000" stroke-width="1" x1="98" x2="98" y1="329" y2="334"/>
<line fill="#000000" stroke="#000000" stroke-width="1" x1="98" x2="98" y1="339" y2="344"/>
<line fill="#000000" stroke="#000000" stroke-width="1" x1="98" x2="98" y1="349" y2="354"/>
<line fill="#000000" stroke="#000000" stroke-width="1" x1="98" x2="98" y1="359" y2="364"/>
<line fill="#000000" stroke="#000000" stroke-width="1" x1="98" x2="98" y1="369" y2="374"/>
<line fill="#000000" stroke="#000000" stroke-width="1" x1="98" x2="98" y1="379" y2="384"/>
<line fill="#000000" stroke="#000000" stroke-width="1" x1="98" x2="98" y1="389" y2="394"/>
<line fill="#000000" stroke="#000000" stroke-width="1" x1="98" x2="98" y1="399" y2="404"/>
<line fill="#000000" stroke="#000000" stroke-width="1" x1="98" x2="98" y1="409" y2="414"/>
<line fill="#000000" stroke="#000000" stroke-width="1" x1="98" x2="98" y1="419" y2="424"/>
<line fill="#000000" stroke="#000000" stroke-width="1" x1="98" x2="98" y1="429" y2="434"/>
<line fill="#000000" stroke="#000000" stroke-width="1" x1="98" x2="98" y1="439" y2="444"/>
<line fill="#000000" stroke="#000000" stroke-width="1" x1="98" x2="98" y1="449" y2="454"/>
<line fill="#000000" stroke="#000000" stroke-width="1" x1="98" x2="98" y1="459" y2="464"/>
<line fill="#000000" stroke="#000000" stroke-width="1" x1="98" x2="98" y1="469" y2="474"/>
<line fill="#000000" stroke="#000000" stroke-width="1" x1="98" x2="98" y1="479" y2="484"/>
<line fill="#000000" stroke="#000000" stroke-width="1" x1="98" x2="98" y1="489" y2="494"/>
<line fill="#000000" stroke="#000000" stroke-width="1" x1="98" x2="98" y1="499" y2="504"/>
<line fill="#000000" stroke="#000000" stroke-width="1" x1="98" x2="98" y1="509" y2="514"/>
<line fill="#000000" stroke="#000000" stroke-width="1" x1="98" x2="98" y1="519" y2="522"/>
<rect fill="#ffffff" height="363" stroke="#ffffff" stroke-width="1" width="20" x="88" y="159"/>
<rect fill="none" height="363" stroke="#000000" stroke-width="1" width="20" x="88" y="159"/>
<rect fill="#ffffff" height="50" stroke="#ffffff" stroke-width="1" width="168" x="14" y="110"/>
<rect fill="none" height="50" stroke="#000000" stroke-width="1" width="168" x="14" y="110"/>
<text font-family="Dialog" font-size="12" x="67" y="124">
/DBMockup</text>
<line fill="#000000" stroke="#000000" stroke-width="1" x1="505" x2="505" y1="159" y2="164"/>
<line fill="#000000" stroke="#000000" stroke-width="1" x1="505" x2="505" y1="169" y2="174"/>
<line fill="#000000" stroke="#000000" stroke-width="1" x1="505" x2="505" y1="179" y2="184"/>
<line fill="#000000" stroke="#000000" stroke-width="1" x1="505" x2="505" y1="189" y2="194"/>
<line fill="#000000" stroke="#000000" stroke-width="1" x1="505" x2="505" y1="199" y2="204"/>
<line fill="#000000" stroke="#000000" stroke-width="1" x1="505" x2="505" y1="209" y2="214"/>
<line fill="#000000" stroke="#000000" stroke-width="1" x1="505" x2="505" y1="219" y2="224"/>
<line fill="#000000" stroke="#000000" stroke-width="1" x1="505" x2="505" y1="229" y2="234"/>
<line fill="#000000" stroke="#000000" stroke-width="1" x1="505" x2="505" y1="239" y2="244"/>
<line fill="#000000" stroke="#000000" stroke-width="1" x1="505" x2="505" y1="249" y2="254"/>
<line fill="#000000" stroke="#000000" stroke-width="1" x1="505" x2="505" y1="259" y2="264"/>
<line fill="#000000" stroke="#000000" stroke-width="1" x1="505" x2="505" y1="269" y2="274"/>
<line fill="#000000" stroke="#000000" stroke-width="1" x1="505" x2="505" y1="279" y2="284"/>
<line fill="#000000" stroke="#000000" stroke-width="1" x1="505" x2="505" y1="289" y2="294"/>
<line fill="#000000" stroke="#000000" stroke-width="1" x1="505" x2="505" y1="299" y2="304"/>
<line fill="#000000" stroke="#000000" stroke-width="1" x1="505" x2="505" y1="309" y2="314"/>
<line fill="#000000" stroke="#000000" stroke-width="1" x1="505" x2="505" y1="319" y2="324"/>
<line fill="#000000" stroke="#000000" stroke-width="1" x1="505" x2="505" y1="329" y2="334"/>
<line fill="#000000" stroke="#000000" stroke-width="1" x1="505" x2="505" y1="339" y2="344"/>
<line fill="#000000" stroke="#000000" stroke-width="1" x1="505" x2="505" y1="349" y2="354"/>
<line fill="#000000" stroke="#000000" stroke-width="1" x1="505" x2="505" y1="359" y2="364"/>
<line fill="#000000" stroke="#000000" stroke-width="1" x1="505" x2="505" y1="369" y2="374"/>
<line fill="#000000" stroke="#000000" stroke-width="1" x1="505" x2="505" y1="379" y2="384"/>
<line fill="#000000" stroke="#000000" stroke-width="1" x1="505" x2="505" y1="389" y2="394"/>
<line fill="#000000" stroke="#000000" stroke-width="1" x1="505" x2="505" y1="399" y2="404"/>
<line fill="#000000" stroke="#000000" stroke-width="1" x1="505" x2="505" y1="409" y2="414"/>
<line fill="#000000" stroke="#000000" stroke-width="1" x1="505" x2="505" y1="419" y2="424"/>
<line fill="#000000" stroke="#000000" stroke-width="1" x1="505" x2="505" y1="429" y2="434"/>
<line fill="#000000" stroke="#000000" stroke-width="1" x1="505" x2="505" y1="439" y2="444"/>
<line fill="#000000" stroke="#000000" stroke-width="1" x1="505" x2="505" y1="449" y2="454"/>
<line fill="#000000" stroke="#000000" stroke-width="1" x1="505" x2="505" y1="459" y2="464"/>
<line fill="#000000" stroke="#000000" stroke-width="1" x1="505" x2="505" y1="469" y2="474"/>
<line fill="#000000" stroke="#000000" stroke-width="1" x1="505" x2="505" y1="479" y2="484"/>
<line fill="#000000" stroke="#000000" stroke-width="1" x1="505" x2="505" y1="489" y2="494"/>
<line fill="#000000" stroke="#000000" stroke-width="1" x1="505" x2="505" y1="499" y2="504"/>
<line fill="#000000" stroke="#000000" stroke-width="1" x1="505" x2="505" y1="509" y2="514"/>
<line fill="#000000" stroke="#000000" stroke-width="1" x1="505" x2="505" y1="519" y2="523"/>
<rect fill="#ffffff" height="364" stroke="#ffffff" stroke-width="1" width="20" x="495" y="159"/>
<rect fill="none" height="364" stroke="#000000" stroke-width="1" width="20" x="495" y="159"/>
<rect fill="#ffffff" height="50" stroke="#ffffff" stroke-width="1" width="150" x="430" y="110"/>
<rect fill="none" height="50" stroke="#000000" stroke-width="1" width="150" x="430" y="110"/>
<text font-family="Dialog" font-size="12" x="466" y="124">
/AuthFactoryRI</text>
<polyline fill="none" points="676,214 515,214" stroke="#000000" stroke-width="1"/>
<line fill="#000000" stroke="#000000" stroke-width="1" x1="527" x2="515" y1="207" y2="214"/>
<line fill="#000000" stroke="#000000" stroke-width="1" x1="527" x2="515" y1="221" y2="214"/>
<text font-family="Dialog" font-size="12" x="533" y="206">
reistry()</text>
<polyline fill="none" points="495,250 312,250" stroke="#000000" stroke-width="1"/>
<line fill="#000000" stroke="#000000" stroke-width="1" x1="324" x2="312" y1="243" y2="250"/>
<line fill="#000000" stroke="#000000" stroke-width="1" x1="324" x2="312" y1="257" y2="250"/>
<text font-family="Dialog" font-size="12" x="343" y="242">
registry()</text>
<line fill="#000000" stroke="#000000" stroke-width="1" x1="515" x2="520" y1="326" y2="326"/>
<line fill="#000000" stroke="#000000" stroke-width="1" x1="525" x2="530" y1="326" y2="326"/>
<line fill="#000000" stroke="#000000" stroke-width="1" x1="535" x2="540" y1="326" y2="326"/>
<line fill="#000000" stroke="#000000" stroke-width="1" x1="545" x2="550" y1="326" y2="326"/>
<line fill="#000000" stroke="#000000" stroke-width="1" x1="555" x2="560" y1="326" y2="326"/>
<line fill="#000000" stroke="#000000" stroke-width="1" x1="565" x2="570" y1="326" y2="326"/>
<line fill="#000000" stroke="#000000" stroke-width="1" x1="575" x2="580" y1="326" y2="326"/>
<line fill="#000000" stroke="#000000" stroke-width="1" x1="585" x2="590" y1="326" y2="326"/>
<line fill="#000000" stroke="#000000" stroke-width="1" x1="595" x2="600" y1="326" y2="326"/>
<line fill="#000000" stroke="#000000" stroke-width="1" x1="605" x2="610" y1="326" y2="326"/>
<line fill="#000000" stroke="#000000" stroke-width="1" x1="615" x2="620" y1="326" y2="326"/>
<line fill="#000000" stroke="#000000" stroke-width="1" x1="625" x2="630" y1="326" y2="326"/>
<line fill="#000000" stroke="#000000" stroke-width="1" x1="635" x2="640" y1="326" y2="326"/>
<line fill="#000000" stroke="#000000" stroke-width="1" x1="645" x2="650" y1="326" y2="326"/>
<line fill="#000000" stroke="#000000" stroke-width="1" x1="655" x2="660" y1="326" y2="326"/>
<line fill="#000000" stroke="#000000" stroke-width="1" x1="665" x2="670" y1="326" y2="326"/>
<line fill="#000000" stroke="#000000" stroke-width="1" x1="675" x2="676" y1="326" y2="326"/>
<line fill="#000000" stroke="#000000" stroke-width="1" x1="664" x2="676" y1="333" y2="326"/>
<line fill="#000000" stroke="#000000" stroke-width="1" x1="664" x2="676" y1="319" y2="326"/>
<text font-family="Dialog" font-size="12" x="586" y="313">
returnBool()</text>
<polyline fill="none" points="292,310 108,310" stroke="#000000" stroke-width="1"/>
<line fill="#000000" stroke="#000000" stroke-width="1" x1="120" x2="108" y1="303" y2="310"/>
<line fill="#000000" stroke="#000000" stroke-width="1" x1="120" x2="108" y1="317" y2="310"/>
<text font-family="Dialog" font-size="12" x="156" y="305">
save()</text>
<polygon fill="#ffffff" points="182,14 395,14 405,24 405,56 182,56 182,14" stroke="#ffffff" stroke-width="1"/>
<polyline fill="none" points="182,14 395,14 405,24 405,56 182,56 182,14" stroke="#000000" stroke-width="1"/>
<polygon fill="#ffffff" points="395,14 405,24 395,24 395,14" stroke="#ffffff" stroke-width="1"/>
<polyline fill="none" points="395,14 405,24 395,24 395,14" stroke="#000000" stroke-width="1"/>
<text font-family="Dialog" font-size="12" x="185" y="30">
Diagrama Sequencias Registo</text>
<line fill="#000000" stroke="#000000" stroke-width="1" x1="406" x2="410" y1="57" y2="58"/>
<line fill="#000000" stroke="#000000" stroke-width="1" x1="415" x2="420" y1="59" y2="60"/>
<line fill="#000000" stroke="#000000" stroke-width="1" x1="425" x2="430" y1="61" y2="63"/>
<line fill="#000000" stroke="#000000" stroke-width="1" x1="435" x2="440" y1="64" y2="65"/>
<line fill="#000000" stroke="#000000" stroke-width="1" x1="444" x2="449" y1="66" y2="68"/>
<line fill="#000000" stroke="#000000" stroke-width="1" x1="454" x2="459" y1="69" y2="70"/>
<line fill="#000000" stroke="#000000" stroke-width="1" x1="464" x2="469" y1="71" y2="73"/>
<line fill="#000000" stroke="#000000" stroke-width="1" x1="474" x2="478" y1="74" y2="75"/>
<line fill="#000000" stroke="#000000" stroke-width="1" x1="483" x2="488" y1="76" y2="78"/>
<line fill="#000000" stroke="#000000" stroke-width="1" x1="493" x2="498" y1="79" y2="80"/>
<line fill="#000000" stroke="#000000" stroke-width="1" x1="503" x2="508" y1="81" y2="83"/>
<line fill="#000000" stroke="#000000" stroke-width="1" x1="512" x2="517" y1="84" y2="85"/>
<line fill="#000000" stroke="#000000" stroke-width="1" x1="522" x2="527" y1="86" y2="87"/>
<line fill="#000000" stroke="#000000" stroke-width="1" x1="532" x2="537" y1="89" y2="90"/>
<line fill="#000000" stroke="#000000" stroke-width="1" x1="542" x2="546" y1="91" y2="92"/>
<line fill="#000000" stroke="#000000" stroke-width="1" x1="551" x2="556" y1="94" y2="95"/>
<line fill="#000000" stroke="#000000" stroke-width="1" x1="561" x2="566" y1="96" y2="97"/>
<line fill="#000000" stroke="#000000" stroke-width="1" x1="571" x2="576" y1="99" y2="100"/>
<line fill="#000000" stroke="#000000" stroke-width="1" x1="580" x2="585" y1="101" y2="102"/>
<line fill="#000000" stroke="#000000" stroke-width="1" x1="590" x2="595" y1="104" y2="105"/>
<line fill="#000000" stroke="#000000" stroke-width="1" x1="600" x2="605" y1="106" y2="107"/>
<line fill="#000000" stroke="#000000" stroke-width="1" x1="610" x2="614" y1="109" y2="110"/>
<line fill="#000000" stroke="#000000" stroke-width="1" x1="108" x2="113" y1="358" y2="358"/>
<line fill="#000000" stroke="#000000" stroke-width="1" x1="118" x2="123" y1="358" y2="358"/>
<line fill="#000000" stroke="#000000" stroke-width="1" x1="128" x2="133" y1="358" y2="358"/>
<line fill="#000000" stroke="#000000" stroke-width="1" x1="138" x2="143" y1="358" y2="358"/>
<line fill="#000000" stroke="#000000" stroke-width="1" x1="148" x2="153" y1="358" y2="358"/>
<line fill="#000000" stroke="#000000" stroke-width="1" x1="158" x2="163" y1="358" y2="358"/>
<line fill="#000000" stroke="#000000" stroke-width="1" x1="168" x2="173" y1="358" y2="358"/>
<line fill="#000000" stroke="#000000" stroke-width="1" x1="178" x2="183" y1="358" y2="358"/>
<line fill="#000000" stroke="#000000" stroke-width="1" x1="188" x2="193" y1="358" y2="358"/>
<line fill="#000000" stroke="#000000" stroke-width="1" x1="198" x2="203" y1="358" y2="358"/>
<line fill="#000000" stroke="#000000" stroke-width="1" x1="208" x2="213" y1="358" y2="358"/>
<line fill="#000000" stroke="#000000" stroke-width="1" x1="218" x2="223" y1="358" y2="358"/>
<line fill="#000000" stroke="#000000" stroke-width="1" x1="228" x2="233" y1="358" y2="358"/>
<line fill="#000000" stroke="#000000" stroke-width="1" x1="238" x2="243" y1="358" y2="358"/>
<line fill="#000000" stroke="#000000" stroke-width="1" x1="248" x2="253" y1="358" y2="358"/>
<line fill="#000000" stroke="#000000" stroke-width="1" x1="258" x2="263" y1="358" y2="358"/>
<line fill="#000000" stroke="#000000" stroke-width="1" x1="268" x2="273" y1="358" y2="358"/>
<line fill="#000000" stroke="#000000" stroke-width="1" x1="278" x2="283" y1="358" y2="358"/>
<line fill="#000000" stroke="#000000" stroke-width="1" x1="288" x2="292" y1="358" y2="358"/>
<line fill="#000000" stroke="#000000" stroke-width="1" x1="280" x2="292" y1="365" y2="358"/>
<line fill="#000000" stroke="#000000" stroke-width="1" x1="280" x2="292" y1="351" y2="358"/>
<text font-family="Dialog" font-size="12" x="156" y="353">
bool()</text>
</svg>
