<?xml version="1.0" encoding="utf-8" ?>
<!DOCTYPE svg PUBLIC "-//W3C//DTD SVG 1.1//EN" "http://www.w3.org/Graphics/SVG/1.1/DTD/svg11.dtd">
<svg height="673" version="1.1" width="1434" xmlns="http://www.w3.org/2000/svg">
<line fill="#000000" stroke="#000000" stroke-width="1" x1="1150" x2="1150" y1="63" y2="68"/>
<line fill="#000000" stroke="#000000" stroke-width="1" x1="1150" x2="1150" y1="73" y2="78"/>
<line fill="#000000" stroke="#000000" stroke-width="1" x1="1150" x2="1150" y1="83" y2="88"/>
<line fill="#000000" stroke="#000000" stroke-width="1" x1="1150" x2="1150" y1="93" y2="98"/>
<line fill="#000000" stroke="#000000" stroke-width="1" x1="1150" x2="1150" y1="103" y2="108"/>
<line fill="#000000" stroke="#000000" stroke-width="1" x1="1150" x2="1150" y1="113" y2="118"/>
<line fill="#000000" stroke="#000000" stroke-width="1" x1="1150" x2="1150" y1="123" y2="128"/>
<line fill="#000000" stroke="#000000" stroke-width="1" x1="1150" x2="1150" y1="133" y2="138"/>
<line fill="#000000" stroke="#000000" stroke-width="1" x1="1150" x2="1150" y1="143" y2="148"/>
<line fill="#000000" stroke="#000000" stroke-width="1" x1="1150" x2="1150" y1="153" y2="158"/>
<line fill="#000000" stroke="#000000" stroke-width="1" x1="1150" x2="1150" y1="163" y2="168"/>
<line fill="#000000" stroke="#000000" stroke-width="1" x1="1150" x2="1150" y1="173" y2="178"/>
<line fill="#000000" stroke="#000000" stroke-width="1" x1="1150" x2="1150" y1="183" y2="188"/>
<line fill="#000000" stroke="#000000" stroke-width="1" x1="1150" x2="1150" y1="193" y2="198"/>
<line fill="#000000" stroke="#000000" stroke-width="1" x1="1150" x2="1150" y1="203" y2="208"/>
<line fill="#000000" stroke="#000000" stroke-width="1" x1="1150" x2="1150" y1="213" y2="218"/>
<line fill="#000000" stroke="#000000" stroke-width="1" x1="1150" x2="1150" y1="223" y2="228"/>
<line fill="#000000" stroke="#000000" stroke-width="1" x1="1150" x2="1150" y1="233" y2="238"/>
<line fill="#000000" stroke="#000000" stroke-width="1" x1="1150" x2="1150" y1="243" y2="248"/>
<line fill="#000000" stroke="#000000" stroke-width="1" x1="1150" x2="1150" y1="253" y2="258"/>
<line fill="#000000" stroke="#000000" stroke-width="1" x1="1150" x2="1150" y1="263" y2="268"/>
<line fill="#000000" stroke="#000000" stroke-width="1" x1="1150" x2="1150" y1="273" y2="278"/>
<line fill="#000000" stroke="#000000" stroke-width="1" x1="1150" x2="1150" y1="283" y2="288"/>
<line fill="#000000" stroke="#000000" stroke-width="1" x1="1150" x2="1150" y1="293" y2="298"/>
<line fill="#000000" stroke="#000000" stroke-width="1" x1="1150" x2="1150" y1="303" y2="308"/>
<line fill="#000000" stroke="#000000" stroke-width="1" x1="1150" x2="1150" y1="313" y2="318"/>
<line fill="#000000" stroke="#000000" stroke-width="1" x1="1150" x2="1150" y1="323" y2="328"/>
<line fill="#000000" stroke="#000000" stroke-width="1" x1="1150" x2="1150" y1="333" y2="338"/>
<line fill="#000000" stroke="#000000" stroke-width="1" x1="1150" x2="1150" y1="343" y2="348"/>
<line fill="#000000" stroke="#000000" stroke-width="1" x1="1150" x2="1150" y1="353" y2="358"/>
<line fill="#000000" stroke="#000000" stroke-width="1" x1="1150" x2="1150" y1="363" y2="368"/>
<line fill="#000000" stroke="#000000" stroke-width="1" x1="1150" x2="1150" y1="373" y2="378"/>
<line fill="#000000" stroke="#000000" stroke-width="1" x1="1150" x2="1150" y1="383" y2="388"/>
<line fill="#000000" stroke="#000000" stroke-width="1" x1="1150" x2="1150" y1="393" y2="398"/>
<line fill="#000000" stroke="#000000" stroke-width="1" x1="1150" x2="1150" y1="403" y2="408"/>
<line fill="#000000" stroke="#000000" stroke-width="1" x1="1150" x2="1150" y1="413" y2="418"/>
<line fill="#000000" stroke="#000000" stroke-width="1" x1="1150" x2="1150" y1="423" y2="428"/>
<line fill="#000000" stroke="#000000" stroke-width="1" x1="1150" x2="1150" y1="433" y2="438"/>
<line fill="#000000" stroke="#000000" stroke-width="1" x1="1150" x2="1150" y1="443" y2="448"/>
<line fill="#000000" stroke="#000000" stroke-width="1" x1="1150" x2="1150" y1="453" y2="458"/>
<line fill="#000000" stroke="#000000" stroke-width="1" x1="1150" x2="1150" y1="463" y2="468"/>
<line fill="#000000" stroke="#000000" stroke-width="1" x1="1150" x2="1150" y1="473" y2="478"/>
<line fill="#000000" stroke="#000000" stroke-width="1" x1="1150" x2="1150" y1="483" y2="488"/>
<line fill="#000000" stroke="#000000" stroke-width="1" x1="1150" x2="1150" y1="493" y2="498"/>
<line fill="#000000" stroke="#000000" stroke-width="1" x1="1150" x2="1150" y1="503" y2="508"/>
<line fill="#000000" stroke="#000000" stroke-width="1" x1="1150" x2="1150" y1="513" y2="518"/>
<line fill="#000000" stroke="#000000" stroke-width="1" x1="1150" x2="1150" y1="523" y2="528"/>
<line fill="#000000" stroke="#000000" stroke-width="1" x1="1150" x2="1150" y1="533" y2="538"/>
<line fill="#000000" stroke="#000000" stroke-width="1" x1="1150" x2="1150" y1="543" y2="548"/>
<line fill="#000000" stroke="#000000" stroke-width="1" x1="1150" x2="1150" y1="553" y2="558"/>
<line fill="#000000" stroke="#000000" stroke-width="1" x1="1150" x2="1150" y1="563" y2="568"/>
<line fill="#000000" stroke="#000000" stroke-width="1" x1="1150" x2="1150" y1="573" y2="578"/>
<line fill="#000000" stroke="#000000" stroke-width="1" x1="1150" x2="1150" y1="583" y2="588"/>
<line fill="#000000" stroke="#000000" stroke-width="1" x1="1150" x2="1150" y1="593" y2="598"/>
<line fill="#000000" stroke="#000000" stroke-width="1" x1="1150" x2="1150" y1="603" y2="608"/>
<line fill="#000000" stroke="#000000" stroke-width="1" x1="1150" x2="1150" y1="613" y2="618"/>
<line fill="#000000" stroke="#000000" stroke-width="1" x1="1150" x2="1150" y1="623" y2="628"/>
<line fill="#000000" stroke="#000000" stroke-width="1" x1="1150" x2="1150" y1="633" y2="638"/>
<line fill="#000000" stroke="#000000" stroke-width="1" x1="1150" x2="1150" y1="643" y2="648"/>
<rect fill="#ffffff" height="590" stroke="#ffffff" stroke-width="1" width="20" x="1140" y="63"/>
<rect fill="none" height="590" stroke="#000000" stroke-width="1" width="20" x="1140" y="63"/>
<rect fill="#ffffff" height="50" stroke="#ffffff" stroke-width="1" width="144" x="1078" y="14"/>
<rect fill="none" height="50" stroke="#000000" stroke-width="1" width="144" x="1078" y="14"/>
<text font-family="Dialog" font-size="12" x="1105" y="28">
/JobGroupClient</text>
<line fill="#000000" stroke="#000000" stroke-width="1" x1="913" x2="913" y1="63" y2="68"/>
<line fill="#000000" stroke="#000000" stroke-width="1" x1="913" x2="913" y1="73" y2="78"/>
<line fill="#000000" stroke="#000000" stroke-width="1" x1="913" x2="913" y1="83" y2="88"/>
<line fill="#000000" stroke="#000000" stroke-width="1" x1="913" x2="913" y1="93" y2="98"/>
<line fill="#000000" stroke="#000000" stroke-width="1" x1="913" x2="913" y1="103" y2="108"/>
<line fill="#000000" stroke="#000000" stroke-width="1" x1="913" x2="913" y1="113" y2="118"/>
<line fill="#000000" stroke="#000000" stroke-width="1" x1="913" x2="913" y1="123" y2="128"/>
<line fill="#000000" stroke="#000000" stroke-width="1" x1="913" x2="913" y1="133" y2="138"/>
<line fill="#000000" stroke="#000000" stroke-width="1" x1="913" x2="913" y1="143" y2="148"/>
<line fill="#000000" stroke="#000000" stroke-width="1" x1="913" x2="913" y1="153" y2="158"/>
<line fill="#000000" stroke="#000000" stroke-width="1" x1="913" x2="913" y1="163" y2="168"/>
<line fill="#000000" stroke="#000000" stroke-width="1" x1="913" x2="913" y1="173" y2="178"/>
<line fill="#000000" stroke="#000000" stroke-width="1" x1="913" x2="913" y1="183" y2="188"/>
<line fill="#000000" stroke="#000000" stroke-width="1" x1="913" x2="913" y1="193" y2="198"/>
<line fill="#000000" stroke="#000000" stroke-width="1" x1="913" x2="913" y1="203" y2="208"/>
<line fill="#000000" stroke="#000000" stroke-width="1" x1="913" x2="913" y1="213" y2="218"/>
<line fill="#000000" stroke="#000000" stroke-width="1" x1="913" x2="913" y1="223" y2="228"/>
<line fill="#000000" stroke="#000000" stroke-width="1" x1="913" x2="913" y1="233" y2="238"/>
<line fill="#000000" stroke="#000000" stroke-width="1" x1="913" x2="913" y1="243" y2="248"/>
<line fill="#000000" stroke="#000000" stroke-width="1" x1="913" x2="913" y1="253" y2="258"/>
<line fill="#000000" stroke="#000000" stroke-width="1" x1="913" x2="913" y1="263" y2="268"/>
<line fill="#000000" stroke="#000000" stroke-width="1" x1="913" x2="913" y1="273" y2="278"/>
<line fill="#000000" stroke="#000000" stroke-width="1" x1="913" x2="913" y1="283" y2="288"/>
<line fill="#000000" stroke="#000000" stroke-width="1" x1="913" x2="913" y1="293" y2="298"/>
<line fill="#000000" stroke="#000000" stroke-width="1" x1="913" x2="913" y1="303" y2="308"/>
<line fill="#000000" stroke="#000000" stroke-width="1" x1="913" x2="913" y1="313" y2="318"/>
<line fill="#000000" stroke="#000000" stroke-width="1" x1="913" x2="913" y1="323" y2="328"/>
<line fill="#000000" stroke="#000000" stroke-width="1" x1="913" x2="913" y1="333" y2="338"/>
<line fill="#000000" stroke="#000000" stroke-width="1" x1="913" x2="913" y1="343" y2="348"/>
<line fill="#000000" stroke="#000000" stroke-width="1" x1="913" x2="913" y1="353" y2="358"/>
<line fill="#000000" stroke="#000000" stroke-width="1" x1="913" x2="913" y1="363" y2="368"/>
<line fill="#000000" stroke="#000000" stroke-width="1" x1="913" x2="913" y1="373" y2="378"/>
<line fill="#000000" stroke="#000000" stroke-width="1" x1="913" x2="913" y1="383" y2="388"/>
<line fill="#000000" stroke="#000000" stroke-width="1" x1="913" x2="913" y1="393" y2="398"/>
<line fill="#000000" stroke="#000000" stroke-width="1" x1="913" x2="913" y1="403" y2="408"/>
<line fill="#000000" stroke="#000000" stroke-width="1" x1="913" x2="913" y1="413" y2="418"/>
<line fill="#000000" stroke="#000000" stroke-width="1" x1="913" x2="913" y1="423" y2="428"/>
<line fill="#000000" stroke="#000000" stroke-width="1" x1="913" x2="913" y1="433" y2="438"/>
<line fill="#000000" stroke="#000000" stroke-width="1" x1="913" x2="913" y1="443" y2="448"/>
<line fill="#000000" stroke="#000000" stroke-width="1" x1="913" x2="913" y1="453" y2="458"/>
<line fill="#000000" stroke="#000000" stroke-width="1" x1="913" x2="913" y1="463" y2="468"/>
<line fill="#000000" stroke="#000000" stroke-width="1" x1="913" x2="913" y1="473" y2="478"/>
<line fill="#000000" stroke="#000000" stroke-width="1" x1="913" x2="913" y1="483" y2="488"/>
<line fill="#000000" stroke="#000000" stroke-width="1" x1="913" x2="913" y1="493" y2="498"/>
<line fill="#000000" stroke="#000000" stroke-width="1" x1="913" x2="913" y1="503" y2="508"/>
<line fill="#000000" stroke="#000000" stroke-width="1" x1="913" x2="913" y1="513" y2="518"/>
<line fill="#000000" stroke="#000000" stroke-width="1" x1="913" x2="913" y1="523" y2="528"/>
<line fill="#000000" stroke="#000000" stroke-width="1" x1="913" x2="913" y1="533" y2="538"/>
<line fill="#000000" stroke="#000000" stroke-width="1" x1="913" x2="913" y1="543" y2="548"/>
<line fill="#000000" stroke="#000000" stroke-width="1" x1="913" x2="913" y1="553" y2="558"/>
<line fill="#000000" stroke="#000000" stroke-width="1" x1="913" x2="913" y1="563" y2="568"/>
<line fill="#000000" stroke="#000000" stroke-width="1" x1="913" x2="913" y1="573" y2="578"/>
<line fill="#000000" stroke="#000000" stroke-width="1" x1="913" x2="913" y1="583" y2="588"/>
<line fill="#000000" stroke="#000000" stroke-width="1" x1="913" x2="913" y1="593" y2="598"/>
<line fill="#000000" stroke="#000000" stroke-width="1" x1="913" x2="913" y1="603" y2="608"/>
<line fill="#000000" stroke="#000000" stroke-width="1" x1="913" x2="913" y1="613" y2="618"/>
<line fill="#000000" stroke="#000000" stroke-width="1" x1="913" x2="913" y1="623" y2="628"/>
<line fill="#000000" stroke="#000000" stroke-width="1" x1="913" x2="913" y1="633" y2="638"/>
<line fill="#000000" stroke="#000000" stroke-width="1" x1="913" x2="913" y1="643" y2="648"/>
<line fill="#000000" stroke="#000000" stroke-width="1" x1="913" x2="913" y1="653" y2="655"/>
<rect fill="#ffffff" height="592" stroke="#ffffff" stroke-width="1" width="20" x="903" y="63"/>
<rect fill="none" height="592" stroke="#000000" stroke-width="1" width="20" x="903" y="63"/>
<rect fill="#ffffff" height="50" stroke="#ffffff" stroke-width="1" width="150" x="838" y="14"/>
<rect fill="none" height="50" stroke="#000000" stroke-width="1" width="150" x="838" y="14"/>
<text font-family="Dialog" font-size="12" x="869" y="28">
/UserSessionRl</text>
<line fill="#000000" stroke="#000000" stroke-width="1" x1="89" x2="89" y1="63" y2="68"/>
<line fill="#000000" stroke="#000000" stroke-width="1" x1="89" x2="89" y1="73" y2="78"/>
<line fill="#000000" stroke="#000000" stroke-width="1" x1="89" x2="89" y1="83" y2="88"/>
<line fill="#000000" stroke="#000000" stroke-width="1" x1="89" x2="89" y1="93" y2="98"/>
<line fill="#000000" stroke="#000000" stroke-width="1" x1="89" x2="89" y1="103" y2="108"/>
<line fill="#000000" stroke="#000000" stroke-width="1" x1="89" x2="89" y1="113" y2="118"/>
<line fill="#000000" stroke="#000000" stroke-width="1" x1="89" x2="89" y1="123" y2="128"/>
<line fill="#000000" stroke="#000000" stroke-width="1" x1="89" x2="89" y1="133" y2="138"/>
<line fill="#000000" stroke="#000000" stroke-width="1" x1="89" x2="89" y1="143" y2="148"/>
<line fill="#000000" stroke="#000000" stroke-width="1" x1="89" x2="89" y1="153" y2="158"/>
<line fill="#000000" stroke="#000000" stroke-width="1" x1="89" x2="89" y1="163" y2="168"/>
<line fill="#000000" stroke="#000000" stroke-width="1" x1="89" x2="89" y1="173" y2="178"/>
<line fill="#000000" stroke="#000000" stroke-width="1" x1="89" x2="89" y1="183" y2="188"/>
<line fill="#000000" stroke="#000000" stroke-width="1" x1="89" x2="89" y1="193" y2="198"/>
<line fill="#000000" stroke="#000000" stroke-width="1" x1="89" x2="89" y1="203" y2="208"/>
<line fill="#000000" stroke="#000000" stroke-width="1" x1="89" x2="89" y1="213" y2="218"/>
<line fill="#000000" stroke="#000000" stroke-width="1" x1="89" x2="89" y1="223" y2="228"/>
<line fill="#000000" stroke="#000000" stroke-width="1" x1="89" x2="89" y1="233" y2="238"/>
<line fill="#000000" stroke="#000000" stroke-width="1" x1="89" x2="89" y1="243" y2="248"/>
<line fill="#000000" stroke="#000000" stroke-width="1" x1="89" x2="89" y1="253" y2="258"/>
<line fill="#000000" stroke="#000000" stroke-width="1" x1="89" x2="89" y1="263" y2="268"/>
<line fill="#000000" stroke="#000000" stroke-width="1" x1="89" x2="89" y1="273" y2="278"/>
<line fill="#000000" stroke="#000000" stroke-width="1" x1="89" x2="89" y1="283" y2="288"/>
<line fill="#000000" stroke="#000000" stroke-width="1" x1="89" x2="89" y1="293" y2="298"/>
<line fill="#000000" stroke="#000000" stroke-width="1" x1="89" x2="89" y1="303" y2="308"/>
<line fill="#000000" stroke="#000000" stroke-width="1" x1="89" x2="89" y1="313" y2="318"/>
<line fill="#000000" stroke="#000000" stroke-width="1" x1="89" x2="89" y1="323" y2="328"/>
<line fill="#000000" stroke="#000000" stroke-width="1" x1="89" x2="89" y1="333" y2="338"/>
<line fill="#000000" stroke="#000000" stroke-width="1" x1="89" x2="89" y1="343" y2="348"/>
<line fill="#000000" stroke="#000000" stroke-width="1" x1="89" x2="89" y1="353" y2="358"/>
<line fill="#000000" stroke="#000000" stroke-width="1" x1="89" x2="89" y1="363" y2="368"/>
<line fill="#000000" stroke="#000000" stroke-width="1" x1="89" x2="89" y1="373" y2="378"/>
<line fill="#000000" stroke="#000000" stroke-width="1" x1="89" x2="89" y1="383" y2="388"/>
<line fill="#000000" stroke="#000000" stroke-width="1" x1="89" x2="89" y1="393" y2="398"/>
<line fill="#000000" stroke="#000000" stroke-width="1" x1="89" x2="89" y1="403" y2="408"/>
<line fill="#000000" stroke="#000000" stroke-width="1" x1="89" x2="89" y1="413" y2="418"/>
<line fill="#000000" stroke="#000000" stroke-width="1" x1="89" x2="89" y1="423" y2="428"/>
<line fill="#000000" stroke="#000000" stroke-width="1" x1="89" x2="89" y1="433" y2="438"/>
<line fill="#000000" stroke="#000000" stroke-width="1" x1="89" x2="89" y1="443" y2="448"/>
<line fill="#000000" stroke="#000000" stroke-width="1" x1="89" x2="89" y1="453" y2="458"/>
<line fill="#000000" stroke="#000000" stroke-width="1" x1="89" x2="89" y1="463" y2="468"/>
<line fill="#000000" stroke="#000000" stroke-width="1" x1="89" x2="89" y1="473" y2="478"/>
<line fill="#000000" stroke="#000000" stroke-width="1" x1="89" x2="89" y1="483" y2="488"/>
<line fill="#000000" stroke="#000000" stroke-width="1" x1="89" x2="89" y1="493" y2="498"/>
<line fill="#000000" stroke="#000000" stroke-width="1" x1="89" x2="89" y1="503" y2="508"/>
<line fill="#000000" stroke="#000000" stroke-width="1" x1="89" x2="89" y1="513" y2="518"/>
<line fill="#000000" stroke="#000000" stroke-width="1" x1="89" x2="89" y1="523" y2="528"/>
<line fill="#000000" stroke="#000000" stroke-width="1" x1="89" x2="89" y1="533" y2="538"/>
<line fill="#000000" stroke="#000000" stroke-width="1" x1="89" x2="89" y1="543" y2="548"/>
<line fill="#000000" stroke="#000000" stroke-width="1" x1="89" x2="89" y1="553" y2="558"/>
<line fill="#000000" stroke="#000000" stroke-width="1" x1="89" x2="89" y1="563" y2="568"/>
<line fill="#000000" stroke="#000000" stroke-width="1" x1="89" x2="89" y1="573" y2="578"/>
<line fill="#000000" stroke="#000000" stroke-width="1" x1="89" x2="89" y1="583" y2="588"/>
<line fill="#000000" stroke="#000000" stroke-width="1" x1="89" x2="89" y1="593" y2="598"/>
<line fill="#000000" stroke="#000000" stroke-width="1" x1="89" x2="89" y1="603" y2="608"/>
<line fill="#000000" stroke="#000000" stroke-width="1" x1="89" x2="89" y1="613" y2="618"/>
<line fill="#000000" stroke="#000000" stroke-width="1" x1="89" x2="89" y1="623" y2="628"/>
<line fill="#000000" stroke="#000000" stroke-width="1" x1="89" x2="89" y1="633" y2="638"/>
<line fill="#000000" stroke="#000000" stroke-width="1" x1="89" x2="89" y1="643" y2="648"/>
<line fill="#000000" stroke="#000000" stroke-width="1" x1="89" x2="89" y1="653" y2="658"/>
<rect fill="#ffffff" height="595" stroke="#ffffff" stroke-width="1" width="20" x="79" y="63"/>
<rect fill="none" height="595" stroke="#000000" stroke-width="1" width="20" x="79" y="63"/>
<rect fill="#ffffff" height="50" stroke="#ffffff" stroke-width="1" width="150" x="14" y="14"/>
<rect fill="none" height="50" stroke="#000000" stroke-width="1" width="150" x="14" y="14"/>
<text font-family="Dialog" font-size="12" x="54" y="28">
/JobGroupRI</text>
<line fill="#000000" stroke="#000000" stroke-width="1" x1="345" x2="345" y1="63" y2="68"/>
<line fill="#000000" stroke="#000000" stroke-width="1" x1="345" x2="345" y1="73" y2="78"/>
<line fill="#000000" stroke="#000000" stroke-width="1" x1="345" x2="345" y1="83" y2="88"/>
<line fill="#000000" stroke="#000000" stroke-width="1" x1="345" x2="345" y1="93" y2="98"/>
<line fill="#000000" stroke="#000000" stroke-width="1" x1="345" x2="345" y1="103" y2="108"/>
<line fill="#000000" stroke="#000000" stroke-width="1" x1="345" x2="345" y1="113" y2="118"/>
<line fill="#000000" stroke="#000000" stroke-width="1" x1="345" x2="345" y1="123" y2="128"/>
<line fill="#000000" stroke="#000000" stroke-width="1" x1="345" x2="345" y1="133" y2="138"/>
<line fill="#000000" stroke="#000000" stroke-width="1" x1="345" x2="345" y1="143" y2="148"/>
<line fill="#000000" stroke="#000000" stroke-width="1" x1="345" x2="345" y1="153" y2="158"/>
<line fill="#000000" stroke="#000000" stroke-width="1" x1="345" x2="345" y1="163" y2="168"/>
<line fill="#000000" stroke="#000000" stroke-width="1" x1="345" x2="345" y1="173" y2="178"/>
<line fill="#000000" stroke="#000000" stroke-width="1" x1="345" x2="345" y1="183" y2="188"/>
<line fill="#000000" stroke="#000000" stroke-width="1" x1="345" x2="345" y1="193" y2="198"/>
<line fill="#000000" stroke="#000000" stroke-width="1" x1="345" x2="345" y1="203" y2="208"/>
<line fill="#000000" stroke="#000000" stroke-width="1" x1="345" x2="345" y1="213" y2="218"/>
<line fill="#000000" stroke="#000000" stroke-width="1" x1="345" x2="345" y1="223" y2="228"/>
<line fill="#000000" stroke="#000000" stroke-width="1" x1="345" x2="345" y1="233" y2="238"/>
<line fill="#000000" stroke="#000000" stroke-width="1" x1="345" x2="345" y1="243" y2="248"/>
<line fill="#000000" stroke="#000000" stroke-width="1" x1="345" x2="345" y1="253" y2="258"/>
<line fill="#000000" stroke="#000000" stroke-width="1" x1="345" x2="345" y1="263" y2="268"/>
<line fill="#000000" stroke="#000000" stroke-width="1" x1="345" x2="345" y1="273" y2="278"/>
<line fill="#000000" stroke="#000000" stroke-width="1" x1="345" x2="345" y1="283" y2="288"/>
<line fill="#000000" stroke="#000000" stroke-width="1" x1="345" x2="345" y1="293" y2="298"/>
<line fill="#000000" stroke="#000000" stroke-width="1" x1="345" x2="345" y1="303" y2="308"/>
<line fill="#000000" stroke="#000000" stroke-width="1" x1="345" x2="345" y1="313" y2="318"/>
<line fill="#000000" stroke="#000000" stroke-width="1" x1="345" x2="345" y1="323" y2="328"/>
<line fill="#000000" stroke="#000000" stroke-width="1" x1="345" x2="345" y1="333" y2="338"/>
<line fill="#000000" stroke="#000000" stroke-width="1" x1="345" x2="345" y1="343" y2="348"/>
<line fill="#000000" stroke="#000000" stroke-width="1" x1="345" x2="345" y1="353" y2="358"/>
<line fill="#000000" stroke="#000000" stroke-width="1" x1="345" x2="345" y1="363" y2="368"/>
<line fill="#000000" stroke="#000000" stroke-width="1" x1="345" x2="345" y1="373" y2="378"/>
<line fill="#000000" stroke="#000000" stroke-width="1" x1="345" x2="345" y1="383" y2="388"/>
<line fill="#000000" stroke="#000000" stroke-width="1" x1="345" x2="345" y1="393" y2="398"/>
<line fill="#000000" stroke="#000000" stroke-width="1" x1="345" x2="345" y1="403" y2="408"/>
<line fill="#000000" stroke="#000000" stroke-width="1" x1="345" x2="345" y1="413" y2="418"/>
<line fill="#000000" stroke="#000000" stroke-width="1" x1="345" x2="345" y1="423" y2="428"/>
<line fill="#000000" stroke="#000000" stroke-width="1" x1="345" x2="345" y1="433" y2="438"/>
<line fill="#000000" stroke="#000000" stroke-width="1" x1="345" x2="345" y1="443" y2="448"/>
<line fill="#000000" stroke="#000000" stroke-width="1" x1="345" x2="345" y1="453" y2="458"/>
<line fill="#000000" stroke="#000000" stroke-width="1" x1="345" x2="345" y1="463" y2="468"/>
<line fill="#000000" stroke="#000000" stroke-width="1" x1="345" x2="345" y1="473" y2="478"/>
<line fill="#000000" stroke="#000000" stroke-width="1" x1="345" x2="345" y1="483" y2="488"/>
<line fill="#000000" stroke="#000000" stroke-width="1" x1="345" x2="345" y1="493" y2="498"/>
<line fill="#000000" stroke="#000000" stroke-width="1" x1="345" x2="345" y1="503" y2="508"/>
<line fill="#000000" stroke="#000000" stroke-width="1" x1="345" x2="345" y1="513" y2="518"/>
<line fill="#000000" stroke="#000000" stroke-width="1" x1="345" x2="345" y1="523" y2="528"/>
<line fill="#000000" stroke="#000000" stroke-width="1" x1="345" x2="345" y1="533" y2="538"/>
<line fill="#000000" stroke="#000000" stroke-width="1" x1="345" x2="345" y1="543" y2="548"/>
<line fill="#000000" stroke="#000000" stroke-width="1" x1="345" x2="345" y1="553" y2="558"/>
<line fill="#000000" stroke="#000000" stroke-width="1" x1="345" x2="345" y1="563" y2="568"/>
<line fill="#000000" stroke="#000000" stroke-width="1" x1="345" x2="345" y1="573" y2="578"/>
<line fill="#000000" stroke="#000000" stroke-width="1" x1="345" x2="345" y1="583" y2="588"/>
<line fill="#000000" stroke="#000000" stroke-width="1" x1="345" x2="345" y1="593" y2="598"/>
<line fill="#000000" stroke="#000000" stroke-width="1" x1="345" x2="345" y1="603" y2="608"/>
<line fill="#000000" stroke="#000000" stroke-width="1" x1="345" x2="345" y1="613" y2="618"/>
<line fill="#000000" stroke="#000000" stroke-width="1" x1="345" x2="345" y1="623" y2="628"/>
<line fill="#000000" stroke="#000000" stroke-width="1" x1="345" x2="345" y1="633" y2="638"/>
<line fill="#000000" stroke="#000000" stroke-width="1" x1="345" x2="345" y1="643" y2="648"/>
<line fill="#000000" stroke="#000000" stroke-width="1" x1="345" x2="345" y1="653" y2="658"/>
<rect fill="#ffffff" height="595" stroke="#ffffff" stroke-width="1" width="20" x="335" y="63"/>
<rect fill="none" height="595" stroke="#000000" stroke-width="1" width="20" x="335" y="63"/>
<rect fill="#ffffff" height="50" stroke="#ffffff" stroke-width="1" width="150" x="270" y="14"/>
<rect fill="none" height="50" stroke="#000000" stroke-width="1" width="150" x="270" y="14"/>
<text font-family="Dialog" font-size="12" x="314" y="28">
/DBMockup</text>
<polyline fill="none" points="1140,166 923,166" stroke="#000000" stroke-width="1"/>
<line fill="#000000" stroke="#000000" stroke-width="1" x1="935" x2="923" y1="159" y2="166"/>
<line fill="#000000" stroke="#000000" stroke-width="1" x1="935" x2="923" y1="173" y2="166"/>
<text font-family="Dialog" font-size="12" x="995" y="149">
createJobGroup()</text>
<line fill="#000000" stroke="#000000" stroke-width="1" x1="1345" x2="1345" y1="63" y2="68"/>
<line fill="#000000" stroke="#000000" stroke-width="1" x1="1345" x2="1345" y1="73" y2="78"/>
<line fill="#000000" stroke="#000000" stroke-width="1" x1="1345" x2="1345" y1="83" y2="88"/>
<line fill="#000000" stroke="#000000" stroke-width="1" x1="1345" x2="1345" y1="93" y2="98"/>
<line fill="#000000" stroke="#000000" stroke-width="1" x1="1345" x2="1345" y1="103" y2="108"/>
<line fill="#000000" stroke="#000000" stroke-width="1" x1="1345" x2="1345" y1="113" y2="118"/>
<line fill="#000000" stroke="#000000" stroke-width="1" x1="1345" x2="1345" y1="123" y2="128"/>
<line fill="#000000" stroke="#000000" stroke-width="1" x1="1345" x2="1345" y1="133" y2="138"/>
<line fill="#000000" stroke="#000000" stroke-width="1" x1="1345" x2="1345" y1="143" y2="148"/>
<line fill="#000000" stroke="#000000" stroke-width="1" x1="1345" x2="1345" y1="153" y2="158"/>
<line fill="#000000" stroke="#000000" stroke-width="1" x1="1345" x2="1345" y1="163" y2="168"/>
<line fill="#000000" stroke="#000000" stroke-width="1" x1="1345" x2="1345" y1="173" y2="178"/>
<line fill="#000000" stroke="#000000" stroke-width="1" x1="1345" x2="1345" y1="183" y2="188"/>
<line fill="#000000" stroke="#000000" stroke-width="1" x1="1345" x2="1345" y1="193" y2="198"/>
<line fill="#000000" stroke="#000000" stroke-width="1" x1="1345" x2="1345" y1="203" y2="208"/>
<line fill="#000000" stroke="#000000" stroke-width="1" x1="1345" x2="1345" y1="213" y2="218"/>
<line fill="#000000" stroke="#000000" stroke-width="1" x1="1345" x2="1345" y1="223" y2="228"/>
<line fill="#000000" stroke="#000000" stroke-width="1" x1="1345" x2="1345" y1="233" y2="238"/>
<line fill="#000000" stroke="#000000" stroke-width="1" x1="1345" x2="1345" y1="243" y2="248"/>
<line fill="#000000" stroke="#000000" stroke-width="1" x1="1345" x2="1345" y1="253" y2="258"/>
<line fill="#000000" stroke="#000000" stroke-width="1" x1="1345" x2="1345" y1="263" y2="268"/>
<line fill="#000000" stroke="#000000" stroke-width="1" x1="1345" x2="1345" y1="273" y2="278"/>
<line fill="#000000" stroke="#000000" stroke-width="1" x1="1345" x2="1345" y1="283" y2="288"/>
<line fill="#000000" stroke="#000000" stroke-width="1" x1="1345" x2="1345" y1="293" y2="298"/>
<line fill="#000000" stroke="#000000" stroke-width="1" x1="1345" x2="1345" y1="303" y2="308"/>
<line fill="#000000" stroke="#000000" stroke-width="1" x1="1345" x2="1345" y1="313" y2="318"/>
<line fill="#000000" stroke="#000000" stroke-width="1" x1="1345" x2="1345" y1="323" y2="328"/>
<line fill="#000000" stroke="#000000" stroke-width="1" x1="1345" x2="1345" y1="333" y2="338"/>
<line fill="#000000" stroke="#000000" stroke-width="1" x1="1345" x2="1345" y1="343" y2="348"/>
<line fill="#000000" stroke="#000000" stroke-width="1" x1="1345" x2="1345" y1="353" y2="358"/>
<line fill="#000000" stroke="#000000" stroke-width="1" x1="1345" x2="1345" y1="363" y2="368"/>
<line fill="#000000" stroke="#000000" stroke-width="1" x1="1345" x2="1345" y1="373" y2="378"/>
<line fill="#000000" stroke="#000000" stroke-width="1" x1="1345" x2="1345" y1="383" y2="388"/>
<line fill="#000000" stroke="#000000" stroke-width="1" x1="1345" x2="1345" y1="393" y2="398"/>
<line fill="#000000" stroke="#000000" stroke-width="1" x1="1345" x2="1345" y1="403" y2="408"/>
<line fill="#000000" stroke="#000000" stroke-width="1" x1="1345" x2="1345" y1="413" y2="418"/>
<line fill="#000000" stroke="#000000" stroke-width="1" x1="1345" x2="1345" y1="423" y2="428"/>
<line fill="#000000" stroke="#000000" stroke-width="1" x1="1345" x2="1345" y1="433" y2="438"/>
<line fill="#000000" stroke="#000000" stroke-width="1" x1="1345" x2="1345" y1="443" y2="448"/>
<line fill="#000000" stroke="#000000" stroke-width="1" x1="1345" x2="1345" y1="453" y2="458"/>
<line fill="#000000" stroke="#000000" stroke-width="1" x1="1345" x2="1345" y1="463" y2="468"/>
<line fill="#000000" stroke="#000000" stroke-width="1" x1="1345" x2="1345" y1="473" y2="478"/>
<line fill="#000000" stroke="#000000" stroke-width="1" x1="1345" x2="1345" y1="483" y2="488"/>
<line fill="#000000" stroke="#000000" stroke-width="1" x1="1345" x2="1345" y1="493" y2="498"/>
<line fill="#000000" stroke="#000000" stroke-width="1" x1="1345" x2="1345" y1="503" y2="508"/>
<line fill="#000000" stroke="#000000" stroke-width="1" x1="1345" x2="1345" y1="513" y2="518"/>
<line fill="#000000" stroke="#000000" stroke-width="1" x1="1345" x2="1345" y1="523" y2="528"/>
<line fill="#000000" stroke="#000000" stroke-width="1" x1="1345" x2="1345" y1="533" y2="538"/>
<line fill="#000000" stroke="#000000" stroke-width="1" x1="1345" x2="1345" y1="543" y2="548"/>
<line fill="#000000" stroke="#000000" stroke-width="1" x1="1345" x2="1345" y1="553" y2="558"/>
<line fill="#000000" stroke="#000000" stroke-width="1" x1="1345" x2="1345" y1="563" y2="568"/>
<line fill="#000000" stroke="#000000" stroke-width="1" x1="1345" x2="1345" y1="573" y2="578"/>
<line fill="#000000" stroke="#000000" stroke-width="1" x1="1345" x2="1345" y1="583" y2="588"/>
<line fill="#000000" stroke="#000000" stroke-width="1" x1="1345" x2="1345" y1="593" y2="598"/>
<line fill="#000000" stroke="#000000" stroke-width="1" x1="1345" x2="1345" y1="603" y2="608"/>
<line fill="#000000" stroke="#000000" stroke-width="1" x1="1345" x2="1345" y1="613" y2="618"/>
<line fill="#000000" stroke="#000000" stroke-width="1" x1="1345" x2="1345" y1="623" y2="628"/>
<line fill="#000000" stroke="#000000" stroke-width="1" x1="1345" x2="1345" y1="633" y2="638"/>
<line fill="#000000" stroke="#000000" stroke-width="1" x1="1345" x2="1345" y1="643" y2="648"/>
<rect fill="#ffffff" height="589" stroke="#ffffff" stroke-width="1" width="20" x="1335" y="63"/>
<rect fill="none" height="589" stroke="#000000" stroke-width="1" width="20" x="1335" y="63"/>
<rect fill="#ffffff" height="50" stroke="#ffffff" stroke-width="1" width="150" x="1270" y="14"/>
<rect fill="none" height="50" stroke="#000000" stroke-width="1" width="150" x="1270" y="14"/>
<text font-family="Dialog" font-size="12" x="1312" y="28">
/WorkerImpl</text>
<polyline fill="none" points="1160,406 1335,406" stroke="#000000" stroke-width="1"/>
<line fill="#000000" stroke="#000000" stroke-width="1" x1="1323" x2="1335" y1="413" y2="406"/>
<line fill="#000000" stroke="#000000" stroke-width="1" x1="1323" x2="1335" y1="399" y2="406"/>
<text font-family="Dialog" font-size="12" x="1197" y="392">
new_Worker()</text>
<line fill="#000000" stroke="#000000" stroke-width="1" x1="553" x2="553" y1="63" y2="68"/>
<line fill="#000000" stroke="#000000" stroke-width="1" x1="553" x2="553" y1="73" y2="78"/>
<line fill="#000000" stroke="#000000" stroke-width="1" x1="553" x2="553" y1="83" y2="88"/>
<line fill="#000000" stroke="#000000" stroke-width="1" x1="553" x2="553" y1="93" y2="98"/>
<line fill="#000000" stroke="#000000" stroke-width="1" x1="553" x2="553" y1="103" y2="108"/>
<line fill="#000000" stroke="#000000" stroke-width="1" x1="553" x2="553" y1="113" y2="118"/>
<line fill="#000000" stroke="#000000" stroke-width="1" x1="553" x2="553" y1="123" y2="128"/>
<line fill="#000000" stroke="#000000" stroke-width="1" x1="553" x2="553" y1="133" y2="138"/>
<line fill="#000000" stroke="#000000" stroke-width="1" x1="553" x2="553" y1="143" y2="148"/>
<line fill="#000000" stroke="#000000" stroke-width="1" x1="553" x2="553" y1="153" y2="158"/>
<line fill="#000000" stroke="#000000" stroke-width="1" x1="553" x2="553" y1="163" y2="168"/>
<line fill="#000000" stroke="#000000" stroke-width="1" x1="553" x2="553" y1="173" y2="178"/>
<line fill="#000000" stroke="#000000" stroke-width="1" x1="553" x2="553" y1="183" y2="188"/>
<line fill="#000000" stroke="#000000" stroke-width="1" x1="553" x2="553" y1="193" y2="198"/>
<line fill="#000000" stroke="#000000" stroke-width="1" x1="553" x2="553" y1="203" y2="208"/>
<line fill="#000000" stroke="#000000" stroke-width="1" x1="553" x2="553" y1="213" y2="218"/>
<line fill="#000000" stroke="#000000" stroke-width="1" x1="553" x2="553" y1="223" y2="228"/>
<line fill="#000000" stroke="#000000" stroke-width="1" x1="553" x2="553" y1="233" y2="238"/>
<line fill="#000000" stroke="#000000" stroke-width="1" x1="553" x2="553" y1="243" y2="248"/>
<line fill="#000000" stroke="#000000" stroke-width="1" x1="553" x2="553" y1="253" y2="258"/>
<line fill="#000000" stroke="#000000" stroke-width="1" x1="553" x2="553" y1="263" y2="268"/>
<line fill="#000000" stroke="#000000" stroke-width="1" x1="553" x2="553" y1="273" y2="278"/>
<line fill="#000000" stroke="#000000" stroke-width="1" x1="553" x2="553" y1="283" y2="288"/>
<line fill="#000000" stroke="#000000" stroke-width="1" x1="553" x2="553" y1="293" y2="298"/>
<line fill="#000000" stroke="#000000" stroke-width="1" x1="553" x2="553" y1="303" y2="308"/>
<line fill="#000000" stroke="#000000" stroke-width="1" x1="553" x2="553" y1="313" y2="318"/>
<line fill="#000000" stroke="#000000" stroke-width="1" x1="553" x2="553" y1="323" y2="328"/>
<line fill="#000000" stroke="#000000" stroke-width="1" x1="553" x2="553" y1="333" y2="338"/>
<line fill="#000000" stroke="#000000" stroke-width="1" x1="553" x2="553" y1="343" y2="348"/>
<line fill="#000000" stroke="#000000" stroke-width="1" x1="553" x2="553" y1="353" y2="358"/>
<line fill="#000000" stroke="#000000" stroke-width="1" x1="553" x2="553" y1="363" y2="368"/>
<line fill="#000000" stroke="#000000" stroke-width="1" x1="553" x2="553" y1="373" y2="378"/>
<line fill="#000000" stroke="#000000" stroke-width="1" x1="553" x2="553" y1="383" y2="388"/>
<line fill="#000000" stroke="#000000" stroke-width="1" x1="553" x2="553" y1="393" y2="398"/>
<line fill="#000000" stroke="#000000" stroke-width="1" x1="553" x2="553" y1="403" y2="408"/>
<line fill="#000000" stroke="#000000" stroke-width="1" x1="553" x2="553" y1="413" y2="418"/>
<line fill="#000000" stroke="#000000" stroke-width="1" x1="553" x2="553" y1="423" y2="428"/>
<line fill="#000000" stroke="#000000" stroke-width="1" x1="553" x2="553" y1="433" y2="438"/>
<line fill="#000000" stroke="#000000" stroke-width="1" x1="553" x2="553" y1="443" y2="448"/>
<line fill="#000000" stroke="#000000" stroke-width="1" x1="553" x2="553" y1="453" y2="458"/>
<line fill="#000000" stroke="#000000" stroke-width="1" x1="553" x2="553" y1="463" y2="468"/>
<line fill="#000000" stroke="#000000" stroke-width="1" x1="553" x2="553" y1="473" y2="478"/>
<line fill="#000000" stroke="#000000" stroke-width="1" x1="553" x2="553" y1="483" y2="488"/>
<line fill="#000000" stroke="#000000" stroke-width="1" x1="553" x2="553" y1="493" y2="498"/>
<line fill="#000000" stroke="#000000" stroke-width="1" x1="553" x2="553" y1="503" y2="508"/>
<line fill="#000000" stroke="#000000" stroke-width="1" x1="553" x2="553" y1="513" y2="518"/>
<line fill="#000000" stroke="#000000" stroke-width="1" x1="553" x2="553" y1="523" y2="528"/>
<line fill="#000000" stroke="#000000" stroke-width="1" x1="553" x2="553" y1="533" y2="538"/>
<line fill="#000000" stroke="#000000" stroke-width="1" x1="553" x2="553" y1="543" y2="548"/>
<line fill="#000000" stroke="#000000" stroke-width="1" x1="553" x2="553" y1="553" y2="558"/>
<line fill="#000000" stroke="#000000" stroke-width="1" x1="553" x2="553" y1="563" y2="568"/>
<line fill="#000000" stroke="#000000" stroke-width="1" x1="553" x2="553" y1="573" y2="578"/>
<line fill="#000000" stroke="#000000" stroke-width="1" x1="553" x2="553" y1="583" y2="588"/>
<line fill="#000000" stroke="#000000" stroke-width="1" x1="553" x2="553" y1="593" y2="598"/>
<line fill="#000000" stroke="#000000" stroke-width="1" x1="553" x2="553" y1="603" y2="608"/>
<line fill="#000000" stroke="#000000" stroke-width="1" x1="553" x2="553" y1="613" y2="618"/>
<line fill="#000000" stroke="#000000" stroke-width="1" x1="553" x2="553" y1="623" y2="628"/>
<line fill="#000000" stroke="#000000" stroke-width="1" x1="553" x2="553" y1="633" y2="638"/>
<line fill="#000000" stroke="#000000" stroke-width="1" x1="553" x2="553" y1="643" y2="648"/>
<rect fill="#ffffff" height="589" stroke="#ffffff" stroke-width="1" width="20" x="543" y="63"/>
<rect fill="none" height="589" stroke="#000000" stroke-width="1" width="20" x="543" y="63"/>
<rect fill="#ffffff" height="50" stroke="#ffffff" stroke-width="1" width="150" x="478" y="14"/>
<rect fill="none" height="50" stroke="#000000" stroke-width="1" width="150" x="478" y="14"/>
<text font-family="Dialog" font-size="12" x="514" y="28">
/JobGroupImp</text>
<line fill="#000000" stroke="#000000" stroke-width="1" x1="713" x2="713" y1="63" y2="68"/>
<line fill="#000000" stroke="#000000" stroke-width="1" x1="713" x2="713" y1="73" y2="78"/>
<line fill="#000000" stroke="#000000" stroke-width="1" x1="713" x2="713" y1="83" y2="88"/>
<line fill="#000000" stroke="#000000" stroke-width="1" x1="713" x2="713" y1="93" y2="98"/>
<line fill="#000000" stroke="#000000" stroke-width="1" x1="713" x2="713" y1="103" y2="108"/>
<line fill="#000000" stroke="#000000" stroke-width="1" x1="713" x2="713" y1="113" y2="118"/>
<line fill="#000000" stroke="#000000" stroke-width="1" x1="713" x2="713" y1="123" y2="128"/>
<line fill="#000000" stroke="#000000" stroke-width="1" x1="713" x2="713" y1="133" y2="138"/>
<line fill="#000000" stroke="#000000" stroke-width="1" x1="713" x2="713" y1="143" y2="148"/>
<line fill="#000000" stroke="#000000" stroke-width="1" x1="713" x2="713" y1="153" y2="158"/>
<line fill="#000000" stroke="#000000" stroke-width="1" x1="713" x2="713" y1="163" y2="168"/>
<line fill="#000000" stroke="#000000" stroke-width="1" x1="713" x2="713" y1="173" y2="178"/>
<line fill="#000000" stroke="#000000" stroke-width="1" x1="713" x2="713" y1="183" y2="188"/>
<line fill="#000000" stroke="#000000" stroke-width="1" x1="713" x2="713" y1="193" y2="198"/>
<line fill="#000000" stroke="#000000" stroke-width="1" x1="713" x2="713" y1="203" y2="208"/>
<line fill="#000000" stroke="#000000" stroke-width="1" x1="713" x2="713" y1="213" y2="218"/>
<line fill="#000000" stroke="#000000" stroke-width="1" x1="713" x2="713" y1="223" y2="228"/>
<line fill="#000000" stroke="#000000" stroke-width="1" x1="713" x2="713" y1="233" y2="238"/>
<line fill="#000000" stroke="#000000" stroke-width="1" x1="713" x2="713" y1="243" y2="248"/>
<line fill="#000000" stroke="#000000" stroke-width="1" x1="713" x2="713" y1="253" y2="258"/>
<line fill="#000000" stroke="#000000" stroke-width="1" x1="713" x2="713" y1="263" y2="268"/>
<line fill="#000000" stroke="#000000" stroke-width="1" x1="713" x2="713" y1="273" y2="278"/>
<line fill="#000000" stroke="#000000" stroke-width="1" x1="713" x2="713" y1="283" y2="288"/>
<line fill="#000000" stroke="#000000" stroke-width="1" x1="713" x2="713" y1="293" y2="298"/>
<line fill="#000000" stroke="#000000" stroke-width="1" x1="713" x2="713" y1="303" y2="308"/>
<line fill="#000000" stroke="#000000" stroke-width="1" x1="713" x2="713" y1="313" y2="318"/>
<line fill="#000000" stroke="#000000" stroke-width="1" x1="713" x2="713" y1="323" y2="328"/>
<line fill="#000000" stroke="#000000" stroke-width="1" x1="713" x2="713" y1="333" y2="338"/>
<line fill="#000000" stroke="#000000" stroke-width="1" x1="713" x2="713" y1="343" y2="348"/>
<line fill="#000000" stroke="#000000" stroke-width="1" x1="713" x2="713" y1="353" y2="358"/>
<line fill="#000000" stroke="#000000" stroke-width="1" x1="713" x2="713" y1="363" y2="368"/>
<line fill="#000000" stroke="#000000" stroke-width="1" x1="713" x2="713" y1="373" y2="378"/>
<line fill="#000000" stroke="#000000" stroke-width="1" x1="713" x2="713" y1="383" y2="388"/>
<line fill="#000000" stroke="#000000" stroke-width="1" x1="713" x2="713" y1="393" y2="398"/>
<line fill="#000000" stroke="#000000" stroke-width="1" x1="713" x2="713" y1="403" y2="408"/>
<line fill="#000000" stroke="#000000" stroke-width="1" x1="713" x2="713" y1="413" y2="418"/>
<line fill="#000000" stroke="#000000" stroke-width="1" x1="713" x2="713" y1="423" y2="428"/>
<line fill="#000000" stroke="#000000" stroke-width="1" x1="713" x2="713" y1="433" y2="438"/>
<line fill="#000000" stroke="#000000" stroke-width="1" x1="713" x2="713" y1="443" y2="448"/>
<line fill="#000000" stroke="#000000" stroke-width="1" x1="713" x2="713" y1="453" y2="458"/>
<line fill="#000000" stroke="#000000" stroke-width="1" x1="713" x2="713" y1="463" y2="468"/>
<line fill="#000000" stroke="#000000" stroke-width="1" x1="713" x2="713" y1="473" y2="478"/>
<line fill="#000000" stroke="#000000" stroke-width="1" x1="713" x2="713" y1="483" y2="488"/>
<line fill="#000000" stroke="#000000" stroke-width="1" x1="713" x2="713" y1="493" y2="498"/>
<line fill="#000000" stroke="#000000" stroke-width="1" x1="713" x2="713" y1="503" y2="508"/>
<line fill="#000000" stroke="#000000" stroke-width="1" x1="713" x2="713" y1="513" y2="518"/>
<line fill="#000000" stroke="#000000" stroke-width="1" x1="713" x2="713" y1="523" y2="528"/>
<line fill="#000000" stroke="#000000" stroke-width="1" x1="713" x2="713" y1="533" y2="538"/>
<line fill="#000000" stroke="#000000" stroke-width="1" x1="713" x2="713" y1="543" y2="548"/>
<line fill="#000000" stroke="#000000" stroke-width="1" x1="713" x2="713" y1="553" y2="558"/>
<line fill="#000000" stroke="#000000" stroke-width="1" x1="713" x2="713" y1="563" y2="568"/>
<line fill="#000000" stroke="#000000" stroke-width="1" x1="713" x2="713" y1="573" y2="578"/>
<line fill="#000000" stroke="#000000" stroke-width="1" x1="713" x2="713" y1="583" y2="588"/>
<line fill="#000000" stroke="#000000" stroke-width="1" x1="713" x2="713" y1="593" y2="598"/>
<line fill="#000000" stroke="#000000" stroke-width="1" x1="713" x2="713" y1="603" y2="608"/>
<line fill="#000000" stroke="#000000" stroke-width="1" x1="713" x2="713" y1="613" y2="618"/>
<line fill="#000000" stroke="#000000" stroke-width="1" x1="713" x2="713" y1="623" y2="628"/>
<line fill="#000000" stroke="#000000" stroke-width="1" x1="713" x2="713" y1="633" y2="638"/>
<line fill="#000000" stroke="#000000" stroke-width="1" x1="713" x2="713" y1="643" y2="648"/>
<rect fill="#ffffff" height="588" stroke="#ffffff" stroke-width="1" width="20" x="703" y="63"/>
<rect fill="none" height="588" stroke="#000000" stroke-width="1" width="20" x="703" y="63"/>
<rect fill="#ffffff" height="50" stroke="#ffffff" stroke-width="1" width="150" x="638" y="14"/>
<rect fill="none" height="50" stroke="#000000" stroke-width="1" width="150" x="638" y="14"/>
<text font-family="Dialog" font-size="12" x="664" y="28">
/UserSessionImp</text>
<polyline fill="none" points="903,254 723,254" stroke="#000000" stroke-width="1"/>
<line fill="#000000" stroke="#000000" stroke-width="1" x1="735" x2="723" y1="247" y2="254"/>
<line fill="#000000" stroke="#000000" stroke-width="1" x1="735" x2="723" y1="261" y2="254"/>
<text font-family="Dialog" font-size="12" x="784" y="247">
create()</text>
<polyline fill="none" points="703,414 355,414" stroke="#000000" stroke-width="1"/>
<line fill="#000000" stroke="#000000" stroke-width="1" x1="367" x2="355" y1="407" y2="414"/>
<line fill="#000000" stroke="#000000" stroke-width="1" x1="367" x2="355" y1="421" y2="414"/>
<text font-family="Dialog" font-size="12" x="372" y="408">
add_JobGroupRI()</text>
<polyline fill="none" points="703,310 563,310" stroke="#000000" stroke-width="1"/>
<line fill="#000000" stroke="#000000" stroke-width="1" x1="575" x2="563" y1="303" y2="310"/>
<line fill="#000000" stroke="#000000" stroke-width="1" x1="575" x2="563" y1="317" y2="310"/>
<text font-family="Dialog" font-size="12" x="603" y="294">
new()</text>
<line fill="#000000" stroke="#000000" stroke-width="1" x1="723" x2="728" y1="330" y2="330"/>
<line fill="#000000" stroke="#000000" stroke-width="1" x1="733" x2="738" y1="330" y2="330"/>
<line fill="#000000" stroke="#000000" stroke-width="1" x1="743" x2="748" y1="330" y2="330"/>
<line fill="#000000" stroke="#000000" stroke-width="1" x1="753" x2="758" y1="330" y2="330"/>
<line fill="#000000" stroke="#000000" stroke-width="1" x1="763" x2="768" y1="330" y2="330"/>
<line fill="#000000" stroke="#000000" stroke-width="1" x1="773" x2="778" y1="330" y2="330"/>
<line fill="#000000" stroke="#000000" stroke-width="1" x1="783" x2="788" y1="330" y2="330"/>
<line fill="#000000" stroke="#000000" stroke-width="1" x1="793" x2="798" y1="330" y2="330"/>
<line fill="#000000" stroke="#000000" stroke-width="1" x1="803" x2="808" y1="330" y2="330"/>
<line fill="#000000" stroke="#000000" stroke-width="1" x1="813" x2="818" y1="330" y2="330"/>
<line fill="#000000" stroke="#000000" stroke-width="1" x1="823" x2="828" y1="330" y2="330"/>
<line fill="#000000" stroke="#000000" stroke-width="1" x1="833" x2="838" y1="330" y2="330"/>
<line fill="#000000" stroke="#000000" stroke-width="1" x1="843" x2="848" y1="330" y2="330"/>
<line fill="#000000" stroke="#000000" stroke-width="1" x1="853" x2="858" y1="330" y2="330"/>
<line fill="#000000" stroke="#000000" stroke-width="1" x1="863" x2="868" y1="330" y2="330"/>
<line fill="#000000" stroke="#000000" stroke-width="1" x1="873" x2="878" y1="330" y2="330"/>
<line fill="#000000" stroke="#000000" stroke-width="1" x1="883" x2="888" y1="330" y2="330"/>
<line fill="#000000" stroke="#000000" stroke-width="1" x1="893" x2="898" y1="330" y2="330"/>
<line fill="#000000" stroke="#000000" stroke-width="1" x1="903" x2="908" y1="330" y2="330"/>
<line fill="#000000" stroke="#000000" stroke-width="1" x1="913" x2="918" y1="330" y2="330"/>
<line fill="#000000" stroke="#000000" stroke-width="1" x1="923" x2="928" y1="330" y2="330"/>
<line fill="#000000" stroke="#000000" stroke-width="1" x1="933" x2="938" y1="330" y2="330"/>
<line fill="#000000" stroke="#000000" stroke-width="1" x1="943" x2="948" y1="330" y2="330"/>
<line fill="#000000" stroke="#000000" stroke-width="1" x1="953" x2="958" y1="330" y2="330"/>
<line fill="#000000" stroke="#000000" stroke-width="1" x1="963" x2="968" y1="330" y2="330"/>
<line fill="#000000" stroke="#000000" stroke-width="1" x1="973" x2="978" y1="330" y2="330"/>
<line fill="#000000" stroke="#000000" stroke-width="1" x1="983" x2="988" y1="330" y2="330"/>
<line fill="#000000" stroke="#000000" stroke-width="1" x1="993" x2="998" y1="330" y2="330"/>
<line fill="#000000" stroke="#000000" stroke-width="1" x1="1003" x2="1008" y1="330" y2="330"/>
<line fill="#000000" stroke="#000000" stroke-width="1" x1="1013" x2="1018" y1="330" y2="330"/>
<line fill="#000000" stroke="#000000" stroke-width="1" x1="1023" x2="1028" y1="330" y2="330"/>
<line fill="#000000" stroke="#000000" stroke-width="1" x1="1033" x2="1038" y1="330" y2="330"/>
<line fill="#000000" stroke="#000000" stroke-width="1" x1="1043" x2="1048" y1="330" y2="330"/>
<line fill="#000000" stroke="#000000" stroke-width="1" x1="1053" x2="1058" y1="330" y2="330"/>
<line fill="#000000" stroke="#000000" stroke-width="1" x1="1063" x2="1068" y1="330" y2="330"/>
<line fill="#000000" stroke="#000000" stroke-width="1" x1="1073" x2="1078" y1="330" y2="330"/>
<line fill="#000000" stroke="#000000" stroke-width="1" x1="1083" x2="1088" y1="330" y2="330"/>
<line fill="#000000" stroke="#000000" stroke-width="1" x1="1093" x2="1098" y1="330" y2="330"/>
<line fill="#000000" stroke="#000000" stroke-width="1" x1="1103" x2="1108" y1="330" y2="330"/>
<line fill="#000000" stroke="#000000" stroke-width="1" x1="1113" x2="1118" y1="330" y2="330"/>
<line fill="#000000" stroke="#000000" stroke-width="1" x1="1123" x2="1128" y1="330" y2="330"/>
<line fill="#000000" stroke="#000000" stroke-width="1" x1="1133" x2="1138" y1="330" y2="330"/>
<line fill="#000000" stroke="#000000" stroke-width="1" x1="1128" x2="1140" y1="337" y2="330"/>
<line fill="#000000" stroke="#000000" stroke-width="1" x1="1128" x2="1140" y1="323" y2="330"/>
<text font-family="Dialog" font-size="12" x="944" y="316">
Return_JobGroupRI()</text>
<polyline fill="none" points="1335,550 1160,550" stroke="#000000" stroke-width="1"/>
<line fill="#000000" stroke="#000000" stroke-width="1" x1="1172" x2="1160" y1="543" y2="550"/>
<line fill="#000000" stroke="#000000" stroke-width="1" x1="1172" x2="1160" y1="557" y2="550"/>
<text font-family="Dialog" font-size="12" x="1204" y="536">
return_Worker()</text>
<polyline fill="none" points="563,478 1335,478" stroke="#000000" stroke-width="1"/>
<line fill="#000000" stroke="#000000" stroke-width="1" x1="1323" x2="1335" y1="485" y2="478"/>
<line fill="#000000" stroke="#000000" stroke-width="1" x1="1323" x2="1335" y1="471" y2="478"/>
<text font-family="Dialog" font-size="12" x="723" y="472">
associate_worker_makespan()</text>
</svg>
