<?xml version="1.0" encoding="utf-8" ?>
<!DOCTYPE svg PUBLIC "-//W3C//DTD SVG 1.1//EN" "http://www.w3.org/Graphics/SVG/1.1/DTD/svg11.dtd">
<svg height="848" version="1.1" width="1410" xmlns="http://www.w3.org/2000/svg">
<line fill="#000000" stroke="#000000" stroke-width="1" x1="622" x2="622" y1="199" y2="204"/>
<line fill="#000000" stroke="#000000" stroke-width="1" x1="622" x2="622" y1="209" y2="214"/>
<line fill="#000000" stroke="#000000" stroke-width="1" x1="622" x2="622" y1="219" y2="224"/>
<line fill="#000000" stroke="#000000" stroke-width="1" x1="622" x2="622" y1="229" y2="234"/>
<line fill="#000000" stroke="#000000" stroke-width="1" x1="622" x2="622" y1="239" y2="244"/>
<line fill="#000000" stroke="#000000" stroke-width="1" x1="622" x2="622" y1="249" y2="254"/>
<line fill="#000000" stroke="#000000" stroke-width="1" x1="622" x2="622" y1="259" y2="264"/>
<line fill="#000000" stroke="#000000" stroke-width="1" x1="622" x2="622" y1="269" y2="274"/>
<line fill="#000000" stroke="#000000" stroke-width="1" x1="622" x2="622" y1="279" y2="284"/>
<line fill="#000000" stroke="#000000" stroke-width="1" x1="622" x2="622" y1="289" y2="294"/>
<line fill="#000000" stroke="#000000" stroke-width="1" x1="622" x2="622" y1="299" y2="304"/>
<line fill="#000000" stroke="#000000" stroke-width="1" x1="622" x2="622" y1="309" y2="314"/>
<line fill="#000000" stroke="#000000" stroke-width="1" x1="622" x2="622" y1="319" y2="324"/>
<line fill="#000000" stroke="#000000" stroke-width="1" x1="622" x2="622" y1="329" y2="334"/>
<line fill="#000000" stroke="#000000" stroke-width="1" x1="622" x2="622" y1="339" y2="344"/>
<line fill="#000000" stroke="#000000" stroke-width="1" x1="622" x2="622" y1="349" y2="354"/>
<line fill="#000000" stroke="#000000" stroke-width="1" x1="622" x2="622" y1="359" y2="364"/>
<line fill="#000000" stroke="#000000" stroke-width="1" x1="622" x2="622" y1="369" y2="374"/>
<line fill="#000000" stroke="#000000" stroke-width="1" x1="622" x2="622" y1="379" y2="384"/>
<line fill="#000000" stroke="#000000" stroke-width="1" x1="622" x2="622" y1="389" y2="394"/>
<line fill="#000000" stroke="#000000" stroke-width="1" x1="622" x2="622" y1="399" y2="404"/>
<line fill="#000000" stroke="#000000" stroke-width="1" x1="622" x2="622" y1="409" y2="414"/>
<line fill="#000000" stroke="#000000" stroke-width="1" x1="622" x2="622" y1="419" y2="424"/>
<line fill="#000000" stroke="#000000" stroke-width="1" x1="622" x2="622" y1="429" y2="434"/>
<line fill="#000000" stroke="#000000" stroke-width="1" x1="622" x2="622" y1="439" y2="444"/>
<line fill="#000000" stroke="#000000" stroke-width="1" x1="622" x2="622" y1="449" y2="454"/>
<line fill="#000000" stroke="#000000" stroke-width="1" x1="622" x2="622" y1="459" y2="464"/>
<line fill="#000000" stroke="#000000" stroke-width="1" x1="622" x2="622" y1="469" y2="474"/>
<line fill="#000000" stroke="#000000" stroke-width="1" x1="622" x2="622" y1="479" y2="484"/>
<line fill="#000000" stroke="#000000" stroke-width="1" x1="622" x2="622" y1="489" y2="494"/>
<line fill="#000000" stroke="#000000" stroke-width="1" x1="622" x2="622" y1="499" y2="504"/>
<line fill="#000000" stroke="#000000" stroke-width="1" x1="622" x2="622" y1="509" y2="514"/>
<line fill="#000000" stroke="#000000" stroke-width="1" x1="622" x2="622" y1="519" y2="524"/>
<line fill="#000000" stroke="#000000" stroke-width="1" x1="622" x2="622" y1="529" y2="534"/>
<line fill="#000000" stroke="#000000" stroke-width="1" x1="622" x2="622" y1="539" y2="544"/>
<line fill="#000000" stroke="#000000" stroke-width="1" x1="622" x2="622" y1="549" y2="554"/>
<line fill="#000000" stroke="#000000" stroke-width="1" x1="622" x2="622" y1="559" y2="564"/>
<line fill="#000000" stroke="#000000" stroke-width="1" x1="622" x2="622" y1="569" y2="574"/>
<line fill="#000000" stroke="#000000" stroke-width="1" x1="622" x2="622" y1="579" y2="584"/>
<line fill="#000000" stroke="#000000" stroke-width="1" x1="622" x2="622" y1="589" y2="594"/>
<line fill="#000000" stroke="#000000" stroke-width="1" x1="622" x2="622" y1="599" y2="604"/>
<line fill="#000000" stroke="#000000" stroke-width="1" x1="622" x2="622" y1="609" y2="614"/>
<line fill="#000000" stroke="#000000" stroke-width="1" x1="622" x2="622" y1="619" y2="624"/>
<line fill="#000000" stroke="#000000" stroke-width="1" x1="622" x2="622" y1="629" y2="634"/>
<line fill="#000000" stroke="#000000" stroke-width="1" x1="622" x2="622" y1="639" y2="644"/>
<line fill="#000000" stroke="#000000" stroke-width="1" x1="622" x2="622" y1="649" y2="654"/>
<line fill="#000000" stroke="#000000" stroke-width="1" x1="622" x2="622" y1="659" y2="664"/>
<line fill="#000000" stroke="#000000" stroke-width="1" x1="622" x2="622" y1="669" y2="674"/>
<line fill="#000000" stroke="#000000" stroke-width="1" x1="622" x2="622" y1="679" y2="684"/>
<line fill="#000000" stroke="#000000" stroke-width="1" x1="622" x2="622" y1="689" y2="694"/>
<line fill="#000000" stroke="#000000" stroke-width="1" x1="622" x2="622" y1="699" y2="704"/>
<line fill="#000000" stroke="#000000" stroke-width="1" x1="622" x2="622" y1="709" y2="714"/>
<line fill="#000000" stroke="#000000" stroke-width="1" x1="622" x2="622" y1="719" y2="724"/>
<line fill="#000000" stroke="#000000" stroke-width="1" x1="622" x2="622" y1="729" y2="734"/>
<line fill="#000000" stroke="#000000" stroke-width="1" x1="622" x2="622" y1="739" y2="744"/>
<line fill="#000000" stroke="#000000" stroke-width="1" x1="622" x2="622" y1="749" y2="754"/>
<line fill="#000000" stroke="#000000" stroke-width="1" x1="622" x2="622" y1="759" y2="764"/>
<line fill="#000000" stroke="#000000" stroke-width="1" x1="622" x2="622" y1="769" y2="774"/>
<line fill="#000000" stroke="#000000" stroke-width="1" x1="622" x2="622" y1="779" y2="784"/>
<line fill="#000000" stroke="#000000" stroke-width="1" x1="622" x2="622" y1="789" y2="794"/>
<line fill="#000000" stroke="#000000" stroke-width="1" x1="622" x2="622" y1="799" y2="804"/>
<line fill="#000000" stroke="#000000" stroke-width="1" x1="622" x2="622" y1="809" y2="814"/>
<line fill="#000000" stroke="#000000" stroke-width="1" x1="622" x2="622" y1="819" y2="824"/>
<line fill="#000000" stroke="#000000" stroke-width="1" x1="622" x2="622" y1="829" y2="832"/>
<rect fill="#ffffff" height="633" stroke="#ffffff" stroke-width="1" width="20" x="612" y="199"/>
<rect fill="none" height="633" stroke="#000000" stroke-width="1" width="20" x="612" y="199"/>
<rect fill="#ffffff" height="50" stroke="#ffffff" stroke-width="1" width="144" x="550" y="150"/>
<rect fill="none" height="50" stroke="#000000" stroke-width="1" width="144" x="550" y="150"/>
<text font-family="Dialog" font-size="12" x="577" y="164">
/JobGroupClient</text>
<line fill="#000000" stroke="#000000" stroke-width="1" x1="1321" x2="1321" y1="199" y2="204"/>
<line fill="#000000" stroke="#000000" stroke-width="1" x1="1321" x2="1321" y1="209" y2="214"/>
<line fill="#000000" stroke="#000000" stroke-width="1" x1="1321" x2="1321" y1="219" y2="224"/>
<line fill="#000000" stroke="#000000" stroke-width="1" x1="1321" x2="1321" y1="229" y2="234"/>
<line fill="#000000" stroke="#000000" stroke-width="1" x1="1321" x2="1321" y1="239" y2="244"/>
<line fill="#000000" stroke="#000000" stroke-width="1" x1="1321" x2="1321" y1="249" y2="254"/>
<line fill="#000000" stroke="#000000" stroke-width="1" x1="1321" x2="1321" y1="259" y2="264"/>
<line fill="#000000" stroke="#000000" stroke-width="1" x1="1321" x2="1321" y1="269" y2="274"/>
<line fill="#000000" stroke="#000000" stroke-width="1" x1="1321" x2="1321" y1="279" y2="284"/>
<line fill="#000000" stroke="#000000" stroke-width="1" x1="1321" x2="1321" y1="289" y2="294"/>
<line fill="#000000" stroke="#000000" stroke-width="1" x1="1321" x2="1321" y1="299" y2="304"/>
<line fill="#000000" stroke="#000000" stroke-width="1" x1="1321" x2="1321" y1="309" y2="314"/>
<line fill="#000000" stroke="#000000" stroke-width="1" x1="1321" x2="1321" y1="319" y2="324"/>
<line fill="#000000" stroke="#000000" stroke-width="1" x1="1321" x2="1321" y1="329" y2="334"/>
<line fill="#000000" stroke="#000000" stroke-width="1" x1="1321" x2="1321" y1="339" y2="344"/>
<line fill="#000000" stroke="#000000" stroke-width="1" x1="1321" x2="1321" y1="349" y2="354"/>
<line fill="#000000" stroke="#000000" stroke-width="1" x1="1321" x2="1321" y1="359" y2="364"/>
<line fill="#000000" stroke="#000000" stroke-width="1" x1="1321" x2="1321" y1="369" y2="374"/>
<line fill="#000000" stroke="#000000" stroke-width="1" x1="1321" x2="1321" y1="379" y2="384"/>
<line fill="#000000" stroke="#000000" stroke-width="1" x1="1321" x2="1321" y1="389" y2="394"/>
<line fill="#000000" stroke="#000000" stroke-width="1" x1="1321" x2="1321" y1="399" y2="404"/>
<line fill="#000000" stroke="#000000" stroke-width="1" x1="1321" x2="1321" y1="409" y2="414"/>
<line fill="#000000" stroke="#000000" stroke-width="1" x1="1321" x2="1321" y1="419" y2="424"/>
<line fill="#000000" stroke="#000000" stroke-width="1" x1="1321" x2="1321" y1="429" y2="434"/>
<line fill="#000000" stroke="#000000" stroke-width="1" x1="1321" x2="1321" y1="439" y2="444"/>
<line fill="#000000" stroke="#000000" stroke-width="1" x1="1321" x2="1321" y1="449" y2="454"/>
<line fill="#000000" stroke="#000000" stroke-width="1" x1="1321" x2="1321" y1="459" y2="464"/>
<line fill="#000000" stroke="#000000" stroke-width="1" x1="1321" x2="1321" y1="469" y2="474"/>
<line fill="#000000" stroke="#000000" stroke-width="1" x1="1321" x2="1321" y1="479" y2="484"/>
<line fill="#000000" stroke="#000000" stroke-width="1" x1="1321" x2="1321" y1="489" y2="494"/>
<line fill="#000000" stroke="#000000" stroke-width="1" x1="1321" x2="1321" y1="499" y2="504"/>
<line fill="#000000" stroke="#000000" stroke-width="1" x1="1321" x2="1321" y1="509" y2="514"/>
<line fill="#000000" stroke="#000000" stroke-width="1" x1="1321" x2="1321" y1="519" y2="524"/>
<line fill="#000000" stroke="#000000" stroke-width="1" x1="1321" x2="1321" y1="529" y2="534"/>
<line fill="#000000" stroke="#000000" stroke-width="1" x1="1321" x2="1321" y1="539" y2="544"/>
<line fill="#000000" stroke="#000000" stroke-width="1" x1="1321" x2="1321" y1="549" y2="554"/>
<line fill="#000000" stroke="#000000" stroke-width="1" x1="1321" x2="1321" y1="559" y2="564"/>
<line fill="#000000" stroke="#000000" stroke-width="1" x1="1321" x2="1321" y1="569" y2="574"/>
<line fill="#000000" stroke="#000000" stroke-width="1" x1="1321" x2="1321" y1="579" y2="584"/>
<line fill="#000000" stroke="#000000" stroke-width="1" x1="1321" x2="1321" y1="589" y2="594"/>
<line fill="#000000" stroke="#000000" stroke-width="1" x1="1321" x2="1321" y1="599" y2="604"/>
<line fill="#000000" stroke="#000000" stroke-width="1" x1="1321" x2="1321" y1="609" y2="614"/>
<line fill="#000000" stroke="#000000" stroke-width="1" x1="1321" x2="1321" y1="619" y2="624"/>
<line fill="#000000" stroke="#000000" stroke-width="1" x1="1321" x2="1321" y1="629" y2="634"/>
<line fill="#000000" stroke="#000000" stroke-width="1" x1="1321" x2="1321" y1="639" y2="644"/>
<line fill="#000000" stroke="#000000" stroke-width="1" x1="1321" x2="1321" y1="649" y2="654"/>
<line fill="#000000" stroke="#000000" stroke-width="1" x1="1321" x2="1321" y1="659" y2="664"/>
<line fill="#000000" stroke="#000000" stroke-width="1" x1="1321" x2="1321" y1="669" y2="674"/>
<line fill="#000000" stroke="#000000" stroke-width="1" x1="1321" x2="1321" y1="679" y2="684"/>
<line fill="#000000" stroke="#000000" stroke-width="1" x1="1321" x2="1321" y1="689" y2="694"/>
<line fill="#000000" stroke="#000000" stroke-width="1" x1="1321" x2="1321" y1="699" y2="704"/>
<line fill="#000000" stroke="#000000" stroke-width="1" x1="1321" x2="1321" y1="709" y2="714"/>
<line fill="#000000" stroke="#000000" stroke-width="1" x1="1321" x2="1321" y1="719" y2="724"/>
<line fill="#000000" stroke="#000000" stroke-width="1" x1="1321" x2="1321" y1="729" y2="734"/>
<line fill="#000000" stroke="#000000" stroke-width="1" x1="1321" x2="1321" y1="739" y2="744"/>
<line fill="#000000" stroke="#000000" stroke-width="1" x1="1321" x2="1321" y1="749" y2="754"/>
<line fill="#000000" stroke="#000000" stroke-width="1" x1="1321" x2="1321" y1="759" y2="764"/>
<line fill="#000000" stroke="#000000" stroke-width="1" x1="1321" x2="1321" y1="769" y2="774"/>
<line fill="#000000" stroke="#000000" stroke-width="1" x1="1321" x2="1321" y1="779" y2="784"/>
<line fill="#000000" stroke="#000000" stroke-width="1" x1="1321" x2="1321" y1="789" y2="794"/>
<line fill="#000000" stroke="#000000" stroke-width="1" x1="1321" x2="1321" y1="799" y2="804"/>
<line fill="#000000" stroke="#000000" stroke-width="1" x1="1321" x2="1321" y1="809" y2="814"/>
<line fill="#000000" stroke="#000000" stroke-width="1" x1="1321" x2="1321" y1="819" y2="824"/>
<rect fill="#ffffff" height="630" stroke="#ffffff" stroke-width="1" width="20" x="1311" y="199"/>
<rect fill="none" height="630" stroke="#000000" stroke-width="1" width="20" x="1311" y="199"/>
<rect fill="#ffffff" height="50" stroke="#ffffff" stroke-width="1" width="150" x="1246" y="150"/>
<rect fill="none" height="50" stroke="#000000" stroke-width="1" width="150" x="1246" y="150"/>
<text font-family="Dialog" font-size="12" x="1282" y="164">
/JobGroupImp</text>
<line fill="#000000" stroke="#000000" stroke-width="1" x1="398" x2="398" y1="199" y2="204"/>
<line fill="#000000" stroke="#000000" stroke-width="1" x1="398" x2="398" y1="209" y2="214"/>
<line fill="#000000" stroke="#000000" stroke-width="1" x1="398" x2="398" y1="219" y2="224"/>
<line fill="#000000" stroke="#000000" stroke-width="1" x1="398" x2="398" y1="229" y2="234"/>
<line fill="#000000" stroke="#000000" stroke-width="1" x1="398" x2="398" y1="239" y2="244"/>
<line fill="#000000" stroke="#000000" stroke-width="1" x1="398" x2="398" y1="249" y2="254"/>
<line fill="#000000" stroke="#000000" stroke-width="1" x1="398" x2="398" y1="259" y2="264"/>
<line fill="#000000" stroke="#000000" stroke-width="1" x1="398" x2="398" y1="269" y2="274"/>
<line fill="#000000" stroke="#000000" stroke-width="1" x1="398" x2="398" y1="279" y2="284"/>
<line fill="#000000" stroke="#000000" stroke-width="1" x1="398" x2="398" y1="289" y2="294"/>
<line fill="#000000" stroke="#000000" stroke-width="1" x1="398" x2="398" y1="299" y2="304"/>
<line fill="#000000" stroke="#000000" stroke-width="1" x1="398" x2="398" y1="309" y2="314"/>
<line fill="#000000" stroke="#000000" stroke-width="1" x1="398" x2="398" y1="319" y2="324"/>
<line fill="#000000" stroke="#000000" stroke-width="1" x1="398" x2="398" y1="329" y2="334"/>
<line fill="#000000" stroke="#000000" stroke-width="1" x1="398" x2="398" y1="339" y2="344"/>
<line fill="#000000" stroke="#000000" stroke-width="1" x1="398" x2="398" y1="349" y2="354"/>
<line fill="#000000" stroke="#000000" stroke-width="1" x1="398" x2="398" y1="359" y2="364"/>
<line fill="#000000" stroke="#000000" stroke-width="1" x1="398" x2="398" y1="369" y2="374"/>
<line fill="#000000" stroke="#000000" stroke-width="1" x1="398" x2="398" y1="379" y2="384"/>
<line fill="#000000" stroke="#000000" stroke-width="1" x1="398" x2="398" y1="389" y2="394"/>
<line fill="#000000" stroke="#000000" stroke-width="1" x1="398" x2="398" y1="399" y2="404"/>
<line fill="#000000" stroke="#000000" stroke-width="1" x1="398" x2="398" y1="409" y2="414"/>
<line fill="#000000" stroke="#000000" stroke-width="1" x1="398" x2="398" y1="419" y2="424"/>
<line fill="#000000" stroke="#000000" stroke-width="1" x1="398" x2="398" y1="429" y2="434"/>
<line fill="#000000" stroke="#000000" stroke-width="1" x1="398" x2="398" y1="439" y2="444"/>
<line fill="#000000" stroke="#000000" stroke-width="1" x1="398" x2="398" y1="449" y2="454"/>
<line fill="#000000" stroke="#000000" stroke-width="1" x1="398" x2="398" y1="459" y2="464"/>
<line fill="#000000" stroke="#000000" stroke-width="1" x1="398" x2="398" y1="469" y2="474"/>
<line fill="#000000" stroke="#000000" stroke-width="1" x1="398" x2="398" y1="479" y2="484"/>
<line fill="#000000" stroke="#000000" stroke-width="1" x1="398" x2="398" y1="489" y2="494"/>
<line fill="#000000" stroke="#000000" stroke-width="1" x1="398" x2="398" y1="499" y2="504"/>
<line fill="#000000" stroke="#000000" stroke-width="1" x1="398" x2="398" y1="509" y2="514"/>
<line fill="#000000" stroke="#000000" stroke-width="1" x1="398" x2="398" y1="519" y2="524"/>
<line fill="#000000" stroke="#000000" stroke-width="1" x1="398" x2="398" y1="529" y2="534"/>
<line fill="#000000" stroke="#000000" stroke-width="1" x1="398" x2="398" y1="539" y2="544"/>
<line fill="#000000" stroke="#000000" stroke-width="1" x1="398" x2="398" y1="549" y2="554"/>
<line fill="#000000" stroke="#000000" stroke-width="1" x1="398" x2="398" y1="559" y2="564"/>
<line fill="#000000" stroke="#000000" stroke-width="1" x1="398" x2="398" y1="569" y2="574"/>
<line fill="#000000" stroke="#000000" stroke-width="1" x1="398" x2="398" y1="579" y2="584"/>
<line fill="#000000" stroke="#000000" stroke-width="1" x1="398" x2="398" y1="589" y2="594"/>
<line fill="#000000" stroke="#000000" stroke-width="1" x1="398" x2="398" y1="599" y2="604"/>
<line fill="#000000" stroke="#000000" stroke-width="1" x1="398" x2="398" y1="609" y2="614"/>
<line fill="#000000" stroke="#000000" stroke-width="1" x1="398" x2="398" y1="619" y2="624"/>
<line fill="#000000" stroke="#000000" stroke-width="1" x1="398" x2="398" y1="629" y2="634"/>
<line fill="#000000" stroke="#000000" stroke-width="1" x1="398" x2="398" y1="639" y2="644"/>
<line fill="#000000" stroke="#000000" stroke-width="1" x1="398" x2="398" y1="649" y2="654"/>
<line fill="#000000" stroke="#000000" stroke-width="1" x1="398" x2="398" y1="659" y2="664"/>
<line fill="#000000" stroke="#000000" stroke-width="1" x1="398" x2="398" y1="669" y2="674"/>
<line fill="#000000" stroke="#000000" stroke-width="1" x1="398" x2="398" y1="679" y2="684"/>
<line fill="#000000" stroke="#000000" stroke-width="1" x1="398" x2="398" y1="689" y2="694"/>
<line fill="#000000" stroke="#000000" stroke-width="1" x1="398" x2="398" y1="699" y2="704"/>
<line fill="#000000" stroke="#000000" stroke-width="1" x1="398" x2="398" y1="709" y2="714"/>
<line fill="#000000" stroke="#000000" stroke-width="1" x1="398" x2="398" y1="719" y2="724"/>
<line fill="#000000" stroke="#000000" stroke-width="1" x1="398" x2="398" y1="729" y2="734"/>
<line fill="#000000" stroke="#000000" stroke-width="1" x1="398" x2="398" y1="739" y2="744"/>
<line fill="#000000" stroke="#000000" stroke-width="1" x1="398" x2="398" y1="749" y2="754"/>
<line fill="#000000" stroke="#000000" stroke-width="1" x1="398" x2="398" y1="759" y2="764"/>
<line fill="#000000" stroke="#000000" stroke-width="1" x1="398" x2="398" y1="769" y2="774"/>
<line fill="#000000" stroke="#000000" stroke-width="1" x1="398" x2="398" y1="779" y2="784"/>
<line fill="#000000" stroke="#000000" stroke-width="1" x1="398" x2="398" y1="789" y2="794"/>
<line fill="#000000" stroke="#000000" stroke-width="1" x1="398" x2="398" y1="799" y2="804"/>
<line fill="#000000" stroke="#000000" stroke-width="1" x1="398" x2="398" y1="809" y2="814"/>
<line fill="#000000" stroke="#000000" stroke-width="1" x1="398" x2="398" y1="819" y2="824"/>
<line fill="#000000" stroke="#000000" stroke-width="1" x1="398" x2="398" y1="829" y2="833"/>
<rect fill="#ffffff" height="634" stroke="#ffffff" stroke-width="1" width="20" x="388" y="199"/>
<rect fill="none" height="634" stroke="#000000" stroke-width="1" width="20" x="388" y="199"/>
<rect fill="#ffffff" height="50" stroke="#ffffff" stroke-width="1" width="208" x="294" y="150"/>
<rect fill="none" height="50" stroke="#000000" stroke-width="1" width="208" x="294" y="150"/>
<text font-family="Dialog" font-size="12" x="354" y="164">
/AuthFactoryImp</text>
<line fill="#000000" stroke="#000000" stroke-width="1" x1="873" x2="873" y1="199" y2="204"/>
<line fill="#000000" stroke="#000000" stroke-width="1" x1="873" x2="873" y1="209" y2="214"/>
<line fill="#000000" stroke="#000000" stroke-width="1" x1="873" x2="873" y1="219" y2="224"/>
<line fill="#000000" stroke="#000000" stroke-width="1" x1="873" x2="873" y1="229" y2="234"/>
<line fill="#000000" stroke="#000000" stroke-width="1" x1="873" x2="873" y1="239" y2="244"/>
<line fill="#000000" stroke="#000000" stroke-width="1" x1="873" x2="873" y1="249" y2="254"/>
<line fill="#000000" stroke="#000000" stroke-width="1" x1="873" x2="873" y1="259" y2="264"/>
<line fill="#000000" stroke="#000000" stroke-width="1" x1="873" x2="873" y1="269" y2="274"/>
<line fill="#000000" stroke="#000000" stroke-width="1" x1="873" x2="873" y1="279" y2="284"/>
<line fill="#000000" stroke="#000000" stroke-width="1" x1="873" x2="873" y1="289" y2="294"/>
<line fill="#000000" stroke="#000000" stroke-width="1" x1="873" x2="873" y1="299" y2="304"/>
<line fill="#000000" stroke="#000000" stroke-width="1" x1="873" x2="873" y1="309" y2="314"/>
<line fill="#000000" stroke="#000000" stroke-width="1" x1="873" x2="873" y1="319" y2="324"/>
<line fill="#000000" stroke="#000000" stroke-width="1" x1="873" x2="873" y1="329" y2="334"/>
<line fill="#000000" stroke="#000000" stroke-width="1" x1="873" x2="873" y1="339" y2="344"/>
<line fill="#000000" stroke="#000000" stroke-width="1" x1="873" x2="873" y1="349" y2="354"/>
<line fill="#000000" stroke="#000000" stroke-width="1" x1="873" x2="873" y1="359" y2="364"/>
<line fill="#000000" stroke="#000000" stroke-width="1" x1="873" x2="873" y1="369" y2="374"/>
<line fill="#000000" stroke="#000000" stroke-width="1" x1="873" x2="873" y1="379" y2="384"/>
<line fill="#000000" stroke="#000000" stroke-width="1" x1="873" x2="873" y1="389" y2="394"/>
<line fill="#000000" stroke="#000000" stroke-width="1" x1="873" x2="873" y1="399" y2="404"/>
<line fill="#000000" stroke="#000000" stroke-width="1" x1="873" x2="873" y1="409" y2="414"/>
<line fill="#000000" stroke="#000000" stroke-width="1" x1="873" x2="873" y1="419" y2="424"/>
<line fill="#000000" stroke="#000000" stroke-width="1" x1="873" x2="873" y1="429" y2="434"/>
<line fill="#000000" stroke="#000000" stroke-width="1" x1="873" x2="873" y1="439" y2="444"/>
<line fill="#000000" stroke="#000000" stroke-width="1" x1="873" x2="873" y1="449" y2="454"/>
<line fill="#000000" stroke="#000000" stroke-width="1" x1="873" x2="873" y1="459" y2="464"/>
<line fill="#000000" stroke="#000000" stroke-width="1" x1="873" x2="873" y1="469" y2="474"/>
<line fill="#000000" stroke="#000000" stroke-width="1" x1="873" x2="873" y1="479" y2="484"/>
<line fill="#000000" stroke="#000000" stroke-width="1" x1="873" x2="873" y1="489" y2="494"/>
<line fill="#000000" stroke="#000000" stroke-width="1" x1="873" x2="873" y1="499" y2="504"/>
<line fill="#000000" stroke="#000000" stroke-width="1" x1="873" x2="873" y1="509" y2="514"/>
<line fill="#000000" stroke="#000000" stroke-width="1" x1="873" x2="873" y1="519" y2="524"/>
<line fill="#000000" stroke="#000000" stroke-width="1" x1="873" x2="873" y1="529" y2="534"/>
<line fill="#000000" stroke="#000000" stroke-width="1" x1="873" x2="873" y1="539" y2="544"/>
<line fill="#000000" stroke="#000000" stroke-width="1" x1="873" x2="873" y1="549" y2="554"/>
<line fill="#000000" stroke="#000000" stroke-width="1" x1="873" x2="873" y1="559" y2="564"/>
<line fill="#000000" stroke="#000000" stroke-width="1" x1="873" x2="873" y1="569" y2="574"/>
<line fill="#000000" stroke="#000000" stroke-width="1" x1="873" x2="873" y1="579" y2="584"/>
<line fill="#000000" stroke="#000000" stroke-width="1" x1="873" x2="873" y1="589" y2="594"/>
<line fill="#000000" stroke="#000000" stroke-width="1" x1="873" x2="873" y1="599" y2="604"/>
<line fill="#000000" stroke="#000000" stroke-width="1" x1="873" x2="873" y1="609" y2="614"/>
<line fill="#000000" stroke="#000000" stroke-width="1" x1="873" x2="873" y1="619" y2="624"/>
<line fill="#000000" stroke="#000000" stroke-width="1" x1="873" x2="873" y1="629" y2="634"/>
<line fill="#000000" stroke="#000000" stroke-width="1" x1="873" x2="873" y1="639" y2="644"/>
<line fill="#000000" stroke="#000000" stroke-width="1" x1="873" x2="873" y1="649" y2="654"/>
<line fill="#000000" stroke="#000000" stroke-width="1" x1="873" x2="873" y1="659" y2="664"/>
<line fill="#000000" stroke="#000000" stroke-width="1" x1="873" x2="873" y1="669" y2="674"/>
<line fill="#000000" stroke="#000000" stroke-width="1" x1="873" x2="873" y1="679" y2="684"/>
<line fill="#000000" stroke="#000000" stroke-width="1" x1="873" x2="873" y1="689" y2="694"/>
<line fill="#000000" stroke="#000000" stroke-width="1" x1="873" x2="873" y1="699" y2="704"/>
<line fill="#000000" stroke="#000000" stroke-width="1" x1="873" x2="873" y1="709" y2="714"/>
<line fill="#000000" stroke="#000000" stroke-width="1" x1="873" x2="873" y1="719" y2="724"/>
<line fill="#000000" stroke="#000000" stroke-width="1" x1="873" x2="873" y1="729" y2="734"/>
<line fill="#000000" stroke="#000000" stroke-width="1" x1="873" x2="873" y1="739" y2="744"/>
<line fill="#000000" stroke="#000000" stroke-width="1" x1="873" x2="873" y1="749" y2="754"/>
<line fill="#000000" stroke="#000000" stroke-width="1" x1="873" x2="873" y1="759" y2="764"/>
<line fill="#000000" stroke="#000000" stroke-width="1" x1="873" x2="873" y1="769" y2="774"/>
<line fill="#000000" stroke="#000000" stroke-width="1" x1="873" x2="873" y1="779" y2="784"/>
<line fill="#000000" stroke="#000000" stroke-width="1" x1="873" x2="873" y1="789" y2="794"/>
<line fill="#000000" stroke="#000000" stroke-width="1" x1="873" x2="873" y1="799" y2="804"/>
<line fill="#000000" stroke="#000000" stroke-width="1" x1="873" x2="873" y1="809" y2="814"/>
<line fill="#000000" stroke="#000000" stroke-width="1" x1="873" x2="873" y1="819" y2="824"/>
<rect fill="#ffffff" height="625" stroke="#ffffff" stroke-width="1" width="20" x="863" y="199"/>
<rect fill="none" height="625" stroke="#000000" stroke-width="1" width="20" x="863" y="199"/>
<rect fill="#ffffff" height="50" stroke="#ffffff" stroke-width="1" width="150" x="798" y="150"/>
<rect fill="none" height="50" stroke="#000000" stroke-width="1" width="150" x="798" y="150"/>
<text font-family="Dialog" font-size="12" x="823" y="164">
/GroupStatusState</text>
<line fill="#000000" stroke="#000000" stroke-width="1" x1="89" x2="89" y1="199" y2="204"/>
<line fill="#000000" stroke="#000000" stroke-width="1" x1="89" x2="89" y1="209" y2="214"/>
<line fill="#000000" stroke="#000000" stroke-width="1" x1="89" x2="89" y1="219" y2="224"/>
<line fill="#000000" stroke="#000000" stroke-width="1" x1="89" x2="89" y1="229" y2="234"/>
<line fill="#000000" stroke="#000000" stroke-width="1" x1="89" x2="89" y1="239" y2="244"/>
<line fill="#000000" stroke="#000000" stroke-width="1" x1="89" x2="89" y1="249" y2="254"/>
<line fill="#000000" stroke="#000000" stroke-width="1" x1="89" x2="89" y1="259" y2="264"/>
<line fill="#000000" stroke="#000000" stroke-width="1" x1="89" x2="89" y1="269" y2="274"/>
<line fill="#000000" stroke="#000000" stroke-width="1" x1="89" x2="89" y1="279" y2="284"/>
<line fill="#000000" stroke="#000000" stroke-width="1" x1="89" x2="89" y1="289" y2="294"/>
<line fill="#000000" stroke="#000000" stroke-width="1" x1="89" x2="89" y1="299" y2="304"/>
<line fill="#000000" stroke="#000000" stroke-width="1" x1="89" x2="89" y1="309" y2="314"/>
<line fill="#000000" stroke="#000000" stroke-width="1" x1="89" x2="89" y1="319" y2="324"/>
<line fill="#000000" stroke="#000000" stroke-width="1" x1="89" x2="89" y1="329" y2="334"/>
<line fill="#000000" stroke="#000000" stroke-width="1" x1="89" x2="89" y1="339" y2="344"/>
<line fill="#000000" stroke="#000000" stroke-width="1" x1="89" x2="89" y1="349" y2="354"/>
<line fill="#000000" stroke="#000000" stroke-width="1" x1="89" x2="89" y1="359" y2="364"/>
<line fill="#000000" stroke="#000000" stroke-width="1" x1="89" x2="89" y1="369" y2="374"/>
<line fill="#000000" stroke="#000000" stroke-width="1" x1="89" x2="89" y1="379" y2="384"/>
<line fill="#000000" stroke="#000000" stroke-width="1" x1="89" x2="89" y1="389" y2="394"/>
<line fill="#000000" stroke="#000000" stroke-width="1" x1="89" x2="89" y1="399" y2="404"/>
<line fill="#000000" stroke="#000000" stroke-width="1" x1="89" x2="89" y1="409" y2="414"/>
<line fill="#000000" stroke="#000000" stroke-width="1" x1="89" x2="89" y1="419" y2="424"/>
<line fill="#000000" stroke="#000000" stroke-width="1" x1="89" x2="89" y1="429" y2="434"/>
<line fill="#000000" stroke="#000000" stroke-width="1" x1="89" x2="89" y1="439" y2="444"/>
<line fill="#000000" stroke="#000000" stroke-width="1" x1="89" x2="89" y1="449" y2="454"/>
<line fill="#000000" stroke="#000000" stroke-width="1" x1="89" x2="89" y1="459" y2="464"/>
<line fill="#000000" stroke="#000000" stroke-width="1" x1="89" x2="89" y1="469" y2="474"/>
<line fill="#000000" stroke="#000000" stroke-width="1" x1="89" x2="89" y1="479" y2="484"/>
<line fill="#000000" stroke="#000000" stroke-width="1" x1="89" x2="89" y1="489" y2="494"/>
<line fill="#000000" stroke="#000000" stroke-width="1" x1="89" x2="89" y1="499" y2="504"/>
<line fill="#000000" stroke="#000000" stroke-width="1" x1="89" x2="89" y1="509" y2="514"/>
<line fill="#000000" stroke="#000000" stroke-width="1" x1="89" x2="89" y1="519" y2="524"/>
<line fill="#000000" stroke="#000000" stroke-width="1" x1="89" x2="89" y1="529" y2="534"/>
<line fill="#000000" stroke="#000000" stroke-width="1" x1="89" x2="89" y1="539" y2="544"/>
<line fill="#000000" stroke="#000000" stroke-width="1" x1="89" x2="89" y1="549" y2="554"/>
<line fill="#000000" stroke="#000000" stroke-width="1" x1="89" x2="89" y1="559" y2="564"/>
<line fill="#000000" stroke="#000000" stroke-width="1" x1="89" x2="89" y1="569" y2="574"/>
<line fill="#000000" stroke="#000000" stroke-width="1" x1="89" x2="89" y1="579" y2="584"/>
<line fill="#000000" stroke="#000000" stroke-width="1" x1="89" x2="89" y1="589" y2="594"/>
<line fill="#000000" stroke="#000000" stroke-width="1" x1="89" x2="89" y1="599" y2="604"/>
<line fill="#000000" stroke="#000000" stroke-width="1" x1="89" x2="89" y1="609" y2="614"/>
<line fill="#000000" stroke="#000000" stroke-width="1" x1="89" x2="89" y1="619" y2="624"/>
<line fill="#000000" stroke="#000000" stroke-width="1" x1="89" x2="89" y1="629" y2="634"/>
<line fill="#000000" stroke="#000000" stroke-width="1" x1="89" x2="89" y1="639" y2="644"/>
<line fill="#000000" stroke="#000000" stroke-width="1" x1="89" x2="89" y1="649" y2="654"/>
<line fill="#000000" stroke="#000000" stroke-width="1" x1="89" x2="89" y1="659" y2="664"/>
<line fill="#000000" stroke="#000000" stroke-width="1" x1="89" x2="89" y1="669" y2="674"/>
<line fill="#000000" stroke="#000000" stroke-width="1" x1="89" x2="89" y1="679" y2="684"/>
<line fill="#000000" stroke="#000000" stroke-width="1" x1="89" x2="89" y1="689" y2="694"/>
<line fill="#000000" stroke="#000000" stroke-width="1" x1="89" x2="89" y1="699" y2="704"/>
<line fill="#000000" stroke="#000000" stroke-width="1" x1="89" x2="89" y1="709" y2="714"/>
<line fill="#000000" stroke="#000000" stroke-width="1" x1="89" x2="89" y1="719" y2="724"/>
<line fill="#000000" stroke="#000000" stroke-width="1" x1="89" x2="89" y1="729" y2="734"/>
<line fill="#000000" stroke="#000000" stroke-width="1" x1="89" x2="89" y1="739" y2="744"/>
<line fill="#000000" stroke="#000000" stroke-width="1" x1="89" x2="89" y1="749" y2="754"/>
<line fill="#000000" stroke="#000000" stroke-width="1" x1="89" x2="89" y1="759" y2="764"/>
<line fill="#000000" stroke="#000000" stroke-width="1" x1="89" x2="89" y1="769" y2="774"/>
<line fill="#000000" stroke="#000000" stroke-width="1" x1="89" x2="89" y1="779" y2="784"/>
<line fill="#000000" stroke="#000000" stroke-width="1" x1="89" x2="89" y1="789" y2="794"/>
<line fill="#000000" stroke="#000000" stroke-width="1" x1="89" x2="89" y1="799" y2="804"/>
<line fill="#000000" stroke="#000000" stroke-width="1" x1="89" x2="89" y1="809" y2="814"/>
<line fill="#000000" stroke="#000000" stroke-width="1" x1="89" x2="89" y1="819" y2="824"/>
<line fill="#000000" stroke="#000000" stroke-width="1" x1="89" x2="89" y1="829" y2="833"/>
<rect fill="#ffffff" height="634" stroke="#ffffff" stroke-width="1" width="20" x="79" y="199"/>
<rect fill="none" height="634" stroke="#000000" stroke-width="1" width="20" x="79" y="199"/>
<rect fill="#ffffff" height="50" stroke="#ffffff" stroke-width="1" width="150" x="14" y="150"/>
<rect fill="none" height="50" stroke="#000000" stroke-width="1" width="150" x="14" y="150"/>
<text font-family="Dialog" font-size="12" x="58" y="164">
/DBMockup</text>
<line fill="#000000" stroke="#000000" stroke-width="1" x1="1073" x2="1073" y1="199" y2="204"/>
<line fill="#000000" stroke="#000000" stroke-width="1" x1="1073" x2="1073" y1="209" y2="214"/>
<line fill="#000000" stroke="#000000" stroke-width="1" x1="1073" x2="1073" y1="219" y2="224"/>
<line fill="#000000" stroke="#000000" stroke-width="1" x1="1073" x2="1073" y1="229" y2="234"/>
<line fill="#000000" stroke="#000000" stroke-width="1" x1="1073" x2="1073" y1="239" y2="244"/>
<line fill="#000000" stroke="#000000" stroke-width="1" x1="1073" x2="1073" y1="249" y2="254"/>
<line fill="#000000" stroke="#000000" stroke-width="1" x1="1073" x2="1073" y1="259" y2="264"/>
<line fill="#000000" stroke="#000000" stroke-width="1" x1="1073" x2="1073" y1="269" y2="274"/>
<line fill="#000000" stroke="#000000" stroke-width="1" x1="1073" x2="1073" y1="279" y2="284"/>
<line fill="#000000" stroke="#000000" stroke-width="1" x1="1073" x2="1073" y1="289" y2="294"/>
<line fill="#000000" stroke="#000000" stroke-width="1" x1="1073" x2="1073" y1="299" y2="304"/>
<line fill="#000000" stroke="#000000" stroke-width="1" x1="1073" x2="1073" y1="309" y2="314"/>
<line fill="#000000" stroke="#000000" stroke-width="1" x1="1073" x2="1073" y1="319" y2="324"/>
<line fill="#000000" stroke="#000000" stroke-width="1" x1="1073" x2="1073" y1="329" y2="334"/>
<line fill="#000000" stroke="#000000" stroke-width="1" x1="1073" x2="1073" y1="339" y2="344"/>
<line fill="#000000" stroke="#000000" stroke-width="1" x1="1073" x2="1073" y1="349" y2="354"/>
<line fill="#000000" stroke="#000000" stroke-width="1" x1="1073" x2="1073" y1="359" y2="364"/>
<line fill="#000000" stroke="#000000" stroke-width="1" x1="1073" x2="1073" y1="369" y2="374"/>
<line fill="#000000" stroke="#000000" stroke-width="1" x1="1073" x2="1073" y1="379" y2="384"/>
<line fill="#000000" stroke="#000000" stroke-width="1" x1="1073" x2="1073" y1="389" y2="394"/>
<line fill="#000000" stroke="#000000" stroke-width="1" x1="1073" x2="1073" y1="399" y2="404"/>
<line fill="#000000" stroke="#000000" stroke-width="1" x1="1073" x2="1073" y1="409" y2="414"/>
<line fill="#000000" stroke="#000000" stroke-width="1" x1="1073" x2="1073" y1="419" y2="424"/>
<line fill="#000000" stroke="#000000" stroke-width="1" x1="1073" x2="1073" y1="429" y2="434"/>
<line fill="#000000" stroke="#000000" stroke-width="1" x1="1073" x2="1073" y1="439" y2="444"/>
<line fill="#000000" stroke="#000000" stroke-width="1" x1="1073" x2="1073" y1="449" y2="454"/>
<line fill="#000000" stroke="#000000" stroke-width="1" x1="1073" x2="1073" y1="459" y2="464"/>
<line fill="#000000" stroke="#000000" stroke-width="1" x1="1073" x2="1073" y1="469" y2="474"/>
<line fill="#000000" stroke="#000000" stroke-width="1" x1="1073" x2="1073" y1="479" y2="484"/>
<line fill="#000000" stroke="#000000" stroke-width="1" x1="1073" x2="1073" y1="489" y2="494"/>
<line fill="#000000" stroke="#000000" stroke-width="1" x1="1073" x2="1073" y1="499" y2="504"/>
<line fill="#000000" stroke="#000000" stroke-width="1" x1="1073" x2="1073" y1="509" y2="514"/>
<line fill="#000000" stroke="#000000" stroke-width="1" x1="1073" x2="1073" y1="519" y2="524"/>
<line fill="#000000" stroke="#000000" stroke-width="1" x1="1073" x2="1073" y1="529" y2="534"/>
<line fill="#000000" stroke="#000000" stroke-width="1" x1="1073" x2="1073" y1="539" y2="544"/>
<line fill="#000000" stroke="#000000" stroke-width="1" x1="1073" x2="1073" y1="549" y2="554"/>
<line fill="#000000" stroke="#000000" stroke-width="1" x1="1073" x2="1073" y1="559" y2="564"/>
<line fill="#000000" stroke="#000000" stroke-width="1" x1="1073" x2="1073" y1="569" y2="574"/>
<line fill="#000000" stroke="#000000" stroke-width="1" x1="1073" x2="1073" y1="579" y2="584"/>
<line fill="#000000" stroke="#000000" stroke-width="1" x1="1073" x2="1073" y1="589" y2="594"/>
<line fill="#000000" stroke="#000000" stroke-width="1" x1="1073" x2="1073" y1="599" y2="604"/>
<line fill="#000000" stroke="#000000" stroke-width="1" x1="1073" x2="1073" y1="609" y2="614"/>
<line fill="#000000" stroke="#000000" stroke-width="1" x1="1073" x2="1073" y1="619" y2="624"/>
<line fill="#000000" stroke="#000000" stroke-width="1" x1="1073" x2="1073" y1="629" y2="634"/>
<line fill="#000000" stroke="#000000" stroke-width="1" x1="1073" x2="1073" y1="639" y2="644"/>
<line fill="#000000" stroke="#000000" stroke-width="1" x1="1073" x2="1073" y1="649" y2="654"/>
<line fill="#000000" stroke="#000000" stroke-width="1" x1="1073" x2="1073" y1="659" y2="664"/>
<line fill="#000000" stroke="#000000" stroke-width="1" x1="1073" x2="1073" y1="669" y2="674"/>
<line fill="#000000" stroke="#000000" stroke-width="1" x1="1073" x2="1073" y1="679" y2="684"/>
<line fill="#000000" stroke="#000000" stroke-width="1" x1="1073" x2="1073" y1="689" y2="694"/>
<line fill="#000000" stroke="#000000" stroke-width="1" x1="1073" x2="1073" y1="699" y2="704"/>
<line fill="#000000" stroke="#000000" stroke-width="1" x1="1073" x2="1073" y1="709" y2="714"/>
<line fill="#000000" stroke="#000000" stroke-width="1" x1="1073" x2="1073" y1="719" y2="724"/>
<line fill="#000000" stroke="#000000" stroke-width="1" x1="1073" x2="1073" y1="729" y2="734"/>
<line fill="#000000" stroke="#000000" stroke-width="1" x1="1073" x2="1073" y1="739" y2="744"/>
<line fill="#000000" stroke="#000000" stroke-width="1" x1="1073" x2="1073" y1="749" y2="754"/>
<line fill="#000000" stroke="#000000" stroke-width="1" x1="1073" x2="1073" y1="759" y2="764"/>
<line fill="#000000" stroke="#000000" stroke-width="1" x1="1073" x2="1073" y1="769" y2="774"/>
<line fill="#000000" stroke="#000000" stroke-width="1" x1="1073" x2="1073" y1="779" y2="784"/>
<line fill="#000000" stroke="#000000" stroke-width="1" x1="1073" x2="1073" y1="789" y2="794"/>
<line fill="#000000" stroke="#000000" stroke-width="1" x1="1073" x2="1073" y1="799" y2="804"/>
<line fill="#000000" stroke="#000000" stroke-width="1" x1="1073" x2="1073" y1="809" y2="814"/>
<line fill="#000000" stroke="#000000" stroke-width="1" x1="1073" x2="1073" y1="819" y2="824"/>
<rect fill="#ffffff" height="628" stroke="#ffffff" stroke-width="1" width="20" x="1063" y="199"/>
<rect fill="none" height="628" stroke="#000000" stroke-width="1" width="20" x="1063" y="199"/>
<rect fill="#ffffff" height="50" stroke="#ffffff" stroke-width="1" width="150" x="998" y="150"/>
<rect fill="none" height="50" stroke="#000000" stroke-width="1" width="150" x="998" y="150"/>
<text font-family="Dialog" font-size="12" x="1046" y="164">
/WorkerRI</text>
<polygon fill="#ffffff" points="926,14 1003,14 1013,24 1013,53 926,53 926,14" stroke="#ffffff" stroke-width="1"/>
<polyline fill="none" points="926,14 1003,14 1013,24 1013,53 926,53 926,14" stroke="#000000" stroke-width="1"/>
<polygon fill="#b2b2b2" points="1003,14 1013,24 1003,24 1003,14" stroke="#b2b2b2" stroke-width="1"/>
<polyline fill="none" points="1003,14 1013,24 1003,24 1003,14" stroke="#000000" stroke-width="1"/>
<text font-family="Dialog" font-size="12" x="929" y="30">
States</text>
<polyline fill="none" points="1311,318 1083,318" stroke="#000000" stroke-width="1"/>
<line fill="#000000" stroke="#000000" stroke-width="1" x1="1095" x2="1083" y1="311" y2="318"/>
<line fill="#000000" stroke="#000000" stroke-width="1" x1="1095" x2="1083" y1="325" y2="318"/>
<text font-family="Dialog" font-size="12" x="1111" y="313">
notifyObservers()</text>
<polyline fill="none" points="1063,390 883,390" stroke="#000000" stroke-width="1"/>
<line fill="#000000" stroke="#000000" stroke-width="1" x1="895" x2="883" y1="383" y2="390"/>
<line fill="#000000" stroke="#000000" stroke-width="1" x1="895" x2="883" y1="397" y2="390"/>
<text font-family="Dialog" font-size="12" x="933" y="378">
setStatus()</text>
<polyline fill="none" points="883,518 1311,518" stroke="#000000" stroke-width="1"/>
<line fill="#000000" stroke="#000000" stroke-width="1" x1="1299" x2="1311" y1="525" y2="518"/>
<line fill="#000000" stroke="#000000" stroke-width="1" x1="1299" x2="1311" y1="511" y2="518"/>
<text font-family="Dialog" font-size="12" x="1091" y="502">
returnState()</text>
</svg>
